<?xml version="1.0" encoding="utf-8"?>
<!-- Generator: Adobe Illustrator 16.0.0, SVG Export Plug-In . SVG Version: 6.00 Build 0)  -->
<!DOCTYPE svg PUBLIC "-//W3C//DTD SVG 1.1//EN" "http://www.w3.org/Graphics/SVG/1.1/DTD/svg11.dtd">
<svg version="1.1" xmlns="http://www.w3.org/2000/svg" xmlns:xlink="http://www.w3.org/1999/xlink" x="0px" y="0px" width="540px"
	 height="537px" viewBox="0 0 540 537" enable-background="new 0 0 540 537" xml:space="preserve">
<g id="Capa_12">
</g>
<g id="Capa_11">
	<circle fill="#FFFFFF" cx="270" cy="268.5" r="261.475"/>
	<g>
		<defs>
			<circle id="SVGID_1_" cx="270" cy="268.5" r="239.96"/>
		</defs>
		<clipPath id="SVGID_2_">
			<use xlink:href="#SVGID_1_"  overflow="visible"/>
		</clipPath>
		<g clip-path="url(#SVGID_2_)">
			<path fill="#80D9DF" stroke="#FFFFFF" stroke-width="10" stroke-miterlimit="10" d="M439.609,452.678l-57.182-23.18
				l-10.363-52.561c-20.667,23.667-68.266,37.065-101.564,37.065c-27.435,0-49.606-5.331-71.787-18.105
				c-16.826,11.038-46.142,27.232-46.142,27.232s-8.238,37.165-11.34,54.777c37.755,22.741,66.436,35.383,129.269,37.83
				C337.083,518.331,395.694,490.758,439.609,452.678z"/>
		</g>
		<g clip-path="url(#SVGID_2_)">
			<path fill="#559297" stroke="#FFFFFF" stroke-width="10" stroke-miterlimit="10" d="M524.85,261.312
				c0-26.312-3.274-67.666-16.016-97.188l-43.12,37l-51.88,3.768c4.536,14.376,11.281,40.544,11.281,56.42
				c0,43.921-23.148,88.001-53.051,115.626c2.42,10.563,10.363,52.561,10.363,52.561s38.373,18.707,54.887,22.249
				C492.141,405.715,524.85,338.502,524.85,261.312z"/>
		</g>
		<g clip-path="url(#SVGID_2_)">
			<path fill="#559297" stroke="#FFFFFF" stroke-width="10" stroke-miterlimit="10" d="M19.553,262.79
				c0,83.059,28.466,155.883,119.697,216.5l13.537-56.253L197,397.29c-47.488-23.629-77.713-84.551-77.713-134.5
				c0-9.065,0.798-17.945,2.327-26.571c-19.447-16.429-40.081-33.486-40.081-33.486s-28.866,2.391-56.19,6.217
				C21.551,226.293,19.553,244.308,19.553,262.79z"/>
		</g>
		<g clip-path="url(#SVGID_2_)">
			<path fill="#496F89" stroke="#FFFFFF" stroke-width="10" stroke-miterlimit="10" d="M25.343,208.949l55.992-6.224l40.279,33.494
				c8.381-61.782,62.795-108.521,130.089-118.248c21.295-43.681,21.935-49.853,21.935-49.853S261.41,38.384,249,12.79
				C134.419,25.508,43.548,115.648,25.343,208.949z"/>
		</g>
		<g clip-path="url(#SVGID_2_)">
			<path fill="#80D9DF" stroke="#FFFFFF" stroke-width="10" stroke-miterlimit="10" d="M256.334,119.291
				c-1.584,1.25,106.995,37.712,154.666,85.601c23.445-1.913,55.474-4.835,55.474-4.835s21.86-18.933,40.685-35.274
				C469.523,73.695,381.686,19.464,275.14,9.595C267.459,8.883,257.167,21.957,257,21.957l19.213,44L256.334,119.291z"/>
			<path fill="#80D9DF" stroke="#FFFFFF" stroke-width="10" stroke-miterlimit="10" d="M276.214,65.958L253.25,117.79
				c0,0,110.079,39.212,157.75,87.102"/>
		</g>
		<path clip-path="url(#SVGID_2_)" fill="#80D9DF" stroke="#FFFFFF" stroke-width="10" stroke-miterlimit="10" d="M461.834,202.305"
			/>
		<g clip-path="url(#SVGID_2_)">
			<path fill="#FFFFFF" d="M95.444,181.333l-1.599,3.809l5.467,2.294l-0.469,1.117l-13.112-5.501l1.788-4.259
				c0.586-1.399,1.383-2.35,2.392-2.852c1.007-0.502,2.12-0.498,3.337,0.013c0.839,0.352,1.477,0.909,1.912,1.67
				c0.435,0.762,0.602,1.608,0.5,2.54l6.957-0.936l0.118,0.049l-0.495,1.18L95.444,181.333z M92.909,184.75l1.425-3.395
				c0.39-0.93,0.439-1.789,0.146-2.575c-0.292-0.786-0.859-1.356-1.701-1.709c-0.926-0.389-1.768-0.396-2.525-0.022
				s-1.36,1.092-1.806,2.155l-1.312,3.125L92.909,184.75z"/>
			<path fill="#FFFFFF" d="M105.675,173.74c-0.397,0.807-0.955,1.437-1.675,1.892c-0.718,0.455-1.521,0.689-2.408,0.7
				c-0.889,0.012-1.773-0.2-2.655-0.634l-0.376-0.187c-0.911-0.45-1.644-1.03-2.199-1.744c-0.556-0.713-0.887-1.487-0.993-2.324
				s0.022-1.623,0.386-2.358c0.566-1.15,1.41-1.869,2.527-2.155c1.118-0.287,2.357-0.095,3.718,0.576l0.587,0.29l-3.336,6.761
				l0.201,0.1c1.075,0.53,2.121,0.664,3.141,0.4c1.019-0.263,1.759-0.861,2.22-1.796c0.276-0.56,0.419-1.105,0.426-1.635
				c0.008-0.53-0.127-1.081-0.404-1.653l0.824-0.411C106.392,170.881,106.397,172.275,105.675,173.74z M96.646,169.525
				c-0.389,0.788-0.428,1.595-0.116,2.42c0.312,0.826,0.927,1.537,1.844,2.134l2.805-5.683l-0.114-0.057
				c-0.926-0.42-1.795-0.526-2.609-0.318C97.642,168.23,97.038,168.731,96.646,169.525z"/>
			<path fill="#FFFFFF" d="M103.318,166.028c-1.438-0.815-2.398-1.779-2.879-2.893c-0.48-1.113-0.408-2.223,0.218-3.328
				c0.703-1.241,1.71-1.916,3.021-2.026l-1.22-0.758l0.539-0.952l12.729,7.209l-0.578,1.02l-4.674-2.647
				c0.494,1.163,0.396,2.353-0.293,3.571c-0.61,1.077-1.522,1.697-2.737,1.862c-1.216,0.164-2.546-0.163-3.99-0.98L103.318,166.028z
				 M104.079,165.101c1.19,0.674,2.259,0.963,3.207,0.868s1.662-0.568,2.145-1.417c0.689-1.218,0.658-2.399-0.094-3.542
				l-4.503-2.551c-0.693-0.056-1.317,0.057-1.87,0.339c-0.553,0.281-0.997,0.72-1.334,1.315c-0.484,0.855-0.524,1.716-0.12,2.581
				C101.914,163.557,102.771,164.359,104.079,165.101z"/>
			<path fill="#FFFFFF" d="M116.278,152.338c0.477,1.145,0.296,2.365-0.542,3.661c-0.611,0.946-1.352,1.487-2.219,1.624
				c-0.868,0.137-1.844-0.137-2.928-0.823l-5.772-3.733l0.63-0.976l5.65,3.653c1.689,1.092,2.977,0.955,3.86-0.412
				c0.918-1.421,0.912-2.701-0.019-3.838l-6.422-4.151l0.637-0.984l8.873,5.737l-0.615,0.952L116.278,152.338z"/>
			<path fill="#FFFFFF" d="M108.535,141.942c-0.18-0.127-0.291-0.292-0.331-0.498c-0.042-0.204,0.008-0.408,0.15-0.61
				c0.144-0.202,0.319-0.319,0.527-0.351c0.209-0.032,0.403,0.016,0.583,0.143s0.287,0.293,0.324,0.499
				c0.038,0.205-0.015,0.409-0.158,0.611c-0.143,0.202-0.315,0.318-0.521,0.35C108.906,142.117,108.715,142.069,108.535,141.942z
				 M120.454,148.672l-0.676,0.958l-8.632-6.095l0.676-0.957L120.454,148.672z"/>
			<path fill="#FFFFFF" d="M117.53,136.525c-0.185,0.17-0.361,0.368-0.529,0.591c-0.438,0.583-0.646,1.198-0.624,1.846
				c0.022,0.647,0.278,1.291,0.769,1.927l5.801,4.359l-0.698,0.929l-8.447-6.348l0.687-0.914l1.354,0.994
				c-0.628-1.245-0.53-2.415,0.291-3.507c0.194-0.261,0.383-0.441,0.564-0.541L117.53,136.525z"/>
			<path fill="#FFFFFF" d="M128.861,138.036c-0.57,0.693-1.258,1.18-2.061,1.459c-0.803,0.28-1.639,0.323-2.506,0.133
				c-0.867-0.191-1.681-0.599-2.439-1.224l-0.324-0.267c-0.784-0.646-1.365-1.379-1.743-2.2c-0.378-0.821-0.523-1.652-0.437-2.491
				c0.088-0.838,0.392-1.575,0.913-2.208c0.815-0.991,1.799-1.498,2.953-1.522c1.154-0.023,2.317,0.446,3.488,1.41l0.505,0.417
				l-4.79,5.821l0.174,0.143c0.924,0.761,1.913,1.13,2.965,1.106c1.053-0.023,1.909-0.438,2.571-1.242
				c0.397-0.483,0.66-0.981,0.788-1.495c0.128-0.515,0.123-1.081-0.017-1.702l0.896-0.212
				C130.212,135.417,129.9,136.774,128.861,138.036z M121.034,131.873c-0.559,0.678-0.78,1.455-0.666,2.33
				c0.115,0.875,0.552,1.708,1.308,2.499l4.028-4.894l-0.099-0.081c-0.805-0.62-1.627-0.922-2.467-0.905
				C122.298,130.839,121.597,131.189,121.034,131.873z"/>
			<path fill="#FFFFFF" d="M125.597,125.186l1.269,1.159c-0.19-0.723-0.199-1.407-0.025-2.05c0.175-0.644,0.509-1.225,1.004-1.743
				c1.151-1.205,2.377-1.498,3.676-0.878c-0.215-0.727-0.232-1.441-0.053-2.143s0.533-1.328,1.06-1.878
				c1.565-1.639,3.258-1.619,5.078,0.058l5.097,4.872l-0.81,0.847l-5.033-4.811c-0.687-0.647-1.333-0.984-1.939-1.009
				s-1.222,0.289-1.848,0.943c-0.57,0.617-0.864,1.317-0.881,2.103c-0.018,0.786,0.228,1.465,0.733,2.039l5.055,4.831l-0.81,0.847
				l-5.098-4.872c-0.658-0.621-1.294-0.932-1.907-0.937c-0.611-0.005-1.22,0.309-1.822,0.939c-0.509,0.532-0.793,1.133-0.854,1.805
				c-0.061,0.671,0.12,1.384,0.542,2.139l5.238,5.006l-0.81,0.847l-7.639-7.3L125.597,125.186z"/>
			<path fill="#FFFFFF" d="M147.906,118.205c-0.667,0.602-1.418,0.981-2.254,1.139c-0.836,0.157-1.668,0.077-2.498-0.24
				c-0.829-0.317-1.573-0.841-2.231-1.571l-0.281-0.312c-0.68-0.755-1.146-1.565-1.398-2.434c-0.253-0.869-0.273-1.71-0.063-2.527
				c0.211-0.816,0.621-1.5,1.229-2.048c0.953-0.859,2.002-1.215,3.146-1.068c1.146,0.146,2.226,0.783,3.242,1.91l0.438,0.486
				l-5.599,5.048l0.15,0.167c0.802,0.889,1.726,1.401,2.77,1.533c1.044,0.132,1.953-0.15,2.728-0.848
				c0.463-0.418,0.797-0.872,0.999-1.361c0.204-0.49,0.282-1.052,0.236-1.686l0.917-0.078
				C149.63,115.813,149.12,117.111,147.906,118.205z M141.076,110.951c-0.652,0.589-0.986,1.324-1.002,2.206
				c-0.016,0.882,0.292,1.77,0.924,2.665l4.707-4.245l-0.086-0.094c-0.704-0.732-1.473-1.152-2.306-1.26
				C142.479,110.115,141.734,110.358,141.076,110.951z"/>
			<path fill="#FFFFFF" d="M146.558,105.134l1.162,1.384c-0.099-0.756-0.023-1.454,0.225-2.091c0.247-0.638,0.649-1.181,1.208-1.63
				c0.883-0.709,1.74-0.989,2.571-0.839c0.831,0.151,1.648,0.721,2.453,1.711l4.345,5.404l-0.906,0.728l-4.35-5.411
				c-0.597-0.731-1.193-1.154-1.79-1.268c-0.597-0.113-1.232,0.102-1.907,0.644c-0.563,0.453-0.92,1.03-1.07,1.731
				c-0.15,0.701-0.089,1.436,0.185,2.201l4.534,5.639l-0.906,0.729l-6.62-8.235L146.558,105.134z"/>
			<path fill="#FFFFFF" d="M154.481,95.574l1.595,2.185l1.767-1.291l0.564,0.773l-1.767,1.29l4.157,5.693
				c0.346,0.474,0.688,0.764,1.029,0.871c0.34,0.107,0.709,0.014,1.109-0.277c0.158-0.115,0.394-0.328,0.707-0.637l0.599,0.737
				c-0.182,0.269-0.486,0.559-0.912,0.869c-0.646,0.473-1.254,0.628-1.823,0.468s-1.12-0.606-1.654-1.337l-4.158-5.694l-1.569,1.146
				l-0.564-0.773l1.569-1.146l-1.596-2.185L154.481,95.574z"/>
			<path fill="#FFFFFF" d="M177.919,94.04c-0.045,0.722-0.358,1.458-0.941,2.206c-0.584,0.749-1.345,1.411-2.281,1.987
				c-0.948,0.583-1.932,0.875-2.948,0.873c-1.018-0.001-1.984-0.293-2.901-0.876c-0.915-0.583-1.707-1.411-2.375-2.483l-0.94-1.531
				c-1.033-1.681-1.425-3.268-1.175-4.763s1.091-2.683,2.522-3.562c1.247-0.767,2.446-1.066,3.597-0.899s2.14,0.765,2.97,1.791
				l-1.023,0.629c-0.696-0.798-1.474-1.25-2.33-1.356c-0.855-0.105-1.747,0.126-2.673,0.695c-1.132,0.696-1.78,1.649-1.945,2.859
				s0.202,2.548,1.104,4.014l0.881,1.432c0.565,0.921,1.224,1.64,1.972,2.155c0.749,0.515,1.534,0.787,2.358,0.816
				s1.616-0.19,2.376-0.658c0.882-0.542,1.554-1.146,2.016-1.812c0.298-0.436,0.472-0.837,0.521-1.204l-1.924-3.128l-3.253,2
				l-0.531-0.865l4.276-2.628L177.919,94.04z"/>
			<path fill="#FFFFFF" d="M187.255,90.958c-0.259-0.239-0.555-0.639-0.887-1.199c-0.113,0.664-0.384,1.271-0.809,1.824
				c-0.427,0.552-0.954,0.995-1.581,1.326c-0.897,0.474-1.757,0.608-2.577,0.401c-0.819-0.208-1.433-0.694-1.837-1.46
				c-0.48-0.909-0.481-1.829-0.005-2.758c0.478-0.929,1.393-1.751,2.745-2.466l1.874-0.99l-0.561-1.062
				c-0.353-0.667-0.836-1.084-1.45-1.25c-0.614-0.165-1.315-0.04-2.104,0.377c-0.721,0.379-1.218,0.879-1.496,1.497
				c-0.277,0.618-0.279,1.186-0.005,1.704l-1.041,0.539c-0.393-0.743-0.388-1.569,0.017-2.478c0.403-0.909,1.108-1.629,2.115-2.162
				c1.043-0.55,2.002-0.724,2.879-0.521c0.877,0.204,1.57,0.768,2.08,1.69l2.336,4.421c0.477,0.904,0.93,1.53,1.356,1.878
				l0.055,0.104L187.255,90.958z M183.616,91.931c0.69-0.365,1.22-0.859,1.587-1.48c0.368-0.621,0.528-1.276,0.48-1.965
				l-1.085-2.055l-1.849,0.976c-1.023,0.556-1.729,1.171-2.119,1.843c-0.388,0.673-0.413,1.329-0.075,1.968
				c0.276,0.524,0.7,0.856,1.271,0.997C182.398,92.353,182.994,92.259,183.616,91.931z"/>
			<path fill="#FFFFFF" d="M186.732,76.464l1.152,2.447l1.979-0.932l0.407,0.866l-1.979,0.932l3.003,6.377
				c0.25,0.531,0.531,0.881,0.845,1.05c0.314,0.169,0.694,0.148,1.143-0.063c0.177-0.083,0.448-0.247,0.814-0.491l0.449,0.838
				c-0.23,0.229-0.584,0.456-1.061,0.681c-0.725,0.342-1.352,0.379-1.88,0.113c-0.528-0.266-0.984-0.808-1.37-1.627l-3.004-6.379
				l-1.758,0.829l-0.408-0.866l1.758-0.828l-1.151-2.448L186.732,76.464z"/>
			<path fill="#FFFFFF" d="M194.145,78.026c0.112-0.73,0.38-1.369,0.8-1.917c0.421-0.549,0.96-0.959,1.615-1.23
				c1.046-0.435,1.947-0.463,2.703-0.086c0.755,0.377,1.381,1.154,1.876,2.33l2.658,6.404l-1.074,0.446l-2.661-6.413
				c-0.367-0.87-0.822-1.442-1.363-1.718s-1.212-0.248-2.011,0.083c-0.668,0.277-1.172,0.731-1.513,1.362
				c-0.341,0.632-0.486,1.354-0.439,2.165l2.774,6.684l-1.073,0.446l-5.75-13.854l1.073-0.446L194.145,78.026z"/>
			<path fill="#FFFFFF" d="M210.337,81.373c-0.848,0.297-1.688,0.356-2.519,0.178c-0.832-0.178-1.568-0.574-2.211-1.188
				s-1.125-1.384-1.449-2.312l-0.14-0.396c-0.335-0.958-0.451-1.887-0.348-2.785c0.103-0.898,0.41-1.683,0.919-2.355
				c0.511-0.671,1.152-1.143,1.927-1.414c1.211-0.423,2.316-0.346,3.314,0.232c0.999,0.579,1.749,1.583,2.249,3.016l0.216,0.617
				l-7.115,2.489l0.074,0.212c0.395,1.13,1.049,1.958,1.96,2.485c0.912,0.526,1.859,0.617,2.843,0.272
				c0.59-0.206,1.073-0.496,1.449-0.869c0.377-0.373,0.666-0.86,0.869-1.463l0.876,0.284
				C212.851,79.835,211.879,80.833,210.337,81.373z M206.846,72.041c-0.829,0.291-1.422,0.839-1.778,1.646
				c-0.355,0.807-0.415,1.746-0.179,2.814l5.982-2.092l-0.043-0.12c-0.365-0.948-0.911-1.633-1.639-2.055
				C208.463,71.813,207.682,71.749,206.846,72.041z"/>
			<path fill="#FFFFFF" d="M218.001,68.707c-0.25,0.027-0.509,0.081-0.778,0.161c-0.698,0.209-1.23,0.581-1.598,1.116
				c-0.366,0.534-0.542,1.203-0.524,2.007l2.08,6.951l-1.113,0.333l-3.03-10.123l1.095-0.328l0.501,1.604
				c0.233-1.375,1.005-2.258,2.315-2.651c0.312-0.093,0.57-0.126,0.775-0.099L218.001,68.707z"/>
			<path fill="#FFFFFF" d="M218.855,64.293c-0.056-0.213-0.035-0.411,0.064-0.595c0.099-0.184,0.268-0.307,0.507-0.372
				c0.239-0.063,0.449-0.041,0.63,0.068s0.299,0.27,0.356,0.483c0.057,0.212,0.033,0.409-0.07,0.591
				c-0.103,0.182-0.273,0.304-0.513,0.368c-0.239,0.063-0.447,0.042-0.624-0.064S218.913,64.505,218.855,64.293z M223.699,77.095
				l-1.132,0.302l-2.726-10.208l1.132-0.303L223.699,77.095z"/>
			<path fill="#FFFFFF" d="M225.4,65.753l0.433,1.755c0.246-0.723,0.62-1.315,1.124-1.777c0.503-0.463,1.104-0.772,1.804-0.929
				c1.105-0.247,1.998-0.12,2.677,0.382c0.68,0.501,1.162,1.375,1.446,2.619l1.513,6.767l-1.134,0.253l-1.516-6.776
				c-0.212-0.92-0.561-1.563-1.046-1.928c-0.485-0.365-1.15-0.453-1.995-0.264c-0.706,0.157-1.28,0.518-1.725,1.081
				c-0.444,0.563-0.714,1.249-0.807,2.056l1.579,7.063l-1.135,0.253l-2.305-10.312L225.4,65.753z"/>
			<path fill="#FFFFFF" d="M235.836,68.799c-0.267-1.632-0.116-2.984,0.451-4.056c0.567-1.072,1.471-1.709,2.71-1.912
				c1.421-0.232,2.593,0.158,3.516,1.168l-0.188-1.513l1.08-0.176l1.667,10.216c0.219,1.343,0.017,2.468-0.607,3.375
				s-1.578,1.465-2.864,1.674c-0.726,0.119-1.444,0.07-2.155-0.148c-0.712-0.217-1.302-0.564-1.769-1.042l0.532-0.799
				c0.979,0.869,2.032,1.212,3.156,1.029c0.964-0.157,1.669-0.564,2.116-1.221c0.447-0.657,0.598-1.492,0.453-2.503l-0.215-1.312
				c-0.57,1.149-1.563,1.838-2.977,2.069c-1.208,0.197-2.257-0.127-3.146-0.971s-1.469-2.086-1.736-3.724L235.836,68.799z
				 M237.035,68.812c0.217,1.331,0.654,2.336,1.313,3.017c0.659,0.681,1.474,0.942,2.443,0.784c1.421-0.231,2.322-1.032,2.705-2.401
				l-0.79-4.848c-0.379-0.625-0.851-1.07-1.416-1.337c-0.564-0.268-1.204-0.343-1.917-0.227c-0.97,0.158-1.663,0.662-2.078,1.512
				C236.879,66.161,236.792,67.327,237.035,68.812z"/>
		</g>
		<g clip-path="url(#SVGID_2_)">
			<path fill="#FFFFFF" d="M353.502,94.818l6.535-12.628l3.53,1.827c1.035,0.535,1.841,1.251,2.418,2.147s0.869,1.903,0.873,3.02
				c0.005,1.117-0.282,2.236-0.863,3.357l-0.602,1.162c-0.584,1.127-1.33,2.01-2.238,2.646c-0.909,0.637-1.9,0.977-2.976,1.021
				c-1.075,0.045-2.15-0.211-3.226-0.767L353.502,94.818z M360.638,83.645l-5.602,10.824l2.394,1.239
				c1.329,0.688,2.625,0.799,3.886,0.333c1.26-0.466,2.279-1.452,3.058-2.957l0.575-1.111c0.752-1.453,0.957-2.821,0.618-4.104
				c-0.341-1.284-1.156-2.264-2.448-2.94L360.638,83.645z"/>
			<path fill="#FFFFFF" d="M368.063,103.009c-0.771-0.461-1.353-1.068-1.748-1.822c-0.396-0.753-0.563-1.572-0.502-2.458
				c0.061-0.886,0.344-1.75,0.85-2.594l0.215-0.36c0.522-0.872,1.162-1.555,1.918-2.051c0.756-0.495,1.556-0.761,2.397-0.8
				c0.843-0.038,1.615,0.154,2.319,0.576c1.1,0.659,1.747,1.558,1.942,2.695c0.195,1.138-0.098,2.357-0.878,3.659l-0.336,0.561
				l-6.467-3.876l-0.115,0.192c-0.616,1.028-0.835,2.06-0.655,3.097c0.179,1.038,0.716,1.824,1.608,2.359
				c0.537,0.321,1.068,0.507,1.597,0.558c0.526,0.05,1.087-0.039,1.68-0.268l0.343,0.854
				C370.854,103.958,369.464,103.849,368.063,103.009z M373,94.355c-0.755-0.452-1.556-0.556-2.402-0.313
				c-0.849,0.244-1.607,0.797-2.278,1.663l5.437,3.258l0.064-0.109c0.494-0.888,0.671-1.746,0.53-2.575
				C374.209,95.452,373.759,94.811,373,94.355z"/>
			<path fill="#FFFFFF" d="M380.053,107.335c0.325-0.48,0.393-0.996,0.203-1.548c-0.188-0.552-0.616-1.172-1.281-1.862
				c-0.666-0.689-1.142-1.285-1.426-1.788c-0.285-0.503-0.429-0.978-0.428-1.426c0-0.448,0.147-0.89,0.442-1.327
				c0.467-0.69,1.141-1.066,2.022-1.126s1.772,0.213,2.674,0.822c0.976,0.66,1.597,1.431,1.861,2.313
				c0.265,0.881,0.135,1.71-0.391,2.488l-0.971-0.657c0.347-0.512,0.419-1.083,0.221-1.713c-0.199-0.629-0.626-1.165-1.278-1.605
				c-0.637-0.43-1.243-0.634-1.82-0.611c-0.577,0.022-1.02,0.26-1.325,0.713c-0.295,0.437-0.363,0.884-0.204,1.341
				c0.158,0.457,0.596,1.072,1.311,1.846s1.207,1.417,1.478,1.93s0.4,0.998,0.391,1.454c-0.01,0.457-0.168,0.912-0.475,1.365
				c-0.499,0.74-1.196,1.128-2.091,1.168c-0.896,0.04-1.823-0.264-2.783-0.914c-1.02-0.688-1.68-1.494-1.98-2.416
				c-0.3-0.922-0.195-1.761,0.315-2.516l0.971,0.656c-0.345,0.592-0.404,1.194-0.177,1.807c0.226,0.612,0.7,1.163,1.423,1.651
				c0.675,0.455,1.319,0.675,1.936,0.659S379.747,107.788,380.053,107.335z"/>
			<path fill="#FFFFFF" d="M382.583,112.48l-0.945-0.693l6.25-8.521l0.944,0.694L382.583,112.48z M389.526,100.685
				c0.13-0.178,0.298-0.285,0.504-0.323c0.205-0.038,0.407,0.016,0.607,0.163c0.199,0.146,0.313,0.324,0.341,0.533
				c0.028,0.209-0.022,0.403-0.152,0.581c-0.13,0.177-0.298,0.282-0.505,0.315c-0.206,0.034-0.408-0.023-0.608-0.169
				c-0.199-0.146-0.313-0.321-0.34-0.526C389.346,101.053,389.396,100.862,389.526,100.685z"/>
			<path fill="#FFFFFF" d="M388.033,109.777c1.032-1.292,2.137-2.087,3.313-2.385c1.175-0.299,2.254-0.056,3.235,0.729
				c1.124,0.899,1.621,2.029,1.491,3.391l0.996-1.153l0.854,0.683l-6.461,8.087c-0.849,1.063-1.818,1.667-2.91,1.813
				c-1.091,0.145-2.146-0.189-3.162-1.001c-0.574-0.459-1.021-1.025-1.337-1.699c-0.315-0.673-0.453-1.344-0.412-2.011l0.95-0.141
				c0.012,1.31,0.463,2.32,1.354,3.031c0.763,0.609,1.538,0.859,2.324,0.75c0.787-0.109,1.508-0.556,2.16-1.343l0.829-1.038
				c-1.234,0.347-2.412,0.073-3.53-0.821c-0.957-0.765-1.42-1.759-1.391-2.986c0.03-1.226,0.563-2.488,1.6-3.785L388.033,109.777z
				 M388.829,110.674c-0.842,1.053-1.294,2.052-1.357,2.998c-0.063,0.945,0.289,1.725,1.057,2.338
				c1.125,0.898,2.322,1.03,3.596,0.397l3.065-3.838c0.209-0.699,0.224-1.349,0.043-1.947c-0.18-0.598-0.553-1.123-1.117-1.574
				c-0.769-0.614-1.606-0.79-2.515-0.529C390.69,108.781,389.768,109.5,388.829,110.674z"/>
			<path fill="#FFFFFF" d="M401.39,114.024l-1.179,1.37c0.73-0.219,1.431-0.257,2.1-0.115s1.27,0.453,1.803,0.931
				c0.842,0.758,1.256,1.559,1.241,2.403c-0.016,0.845-0.447,1.744-1.296,2.697l-4.636,5.156l-0.864-0.777l4.643-5.163
				c0.626-0.707,0.947-1.363,0.964-1.97c0.017-0.607-0.298-1.2-0.941-1.779c-0.538-0.483-1.165-0.743-1.881-0.779
				c-0.717-0.036-1.431,0.143-2.144,0.536l-4.838,5.381l-0.864-0.778l7.064-7.856L401.39,114.024z"/>
		</g>
		<g clip-path="url(#SVGID_2_)">
			<path fill="#FFFFFF" d="M465.441,270.457l14.211,0.488l-0.137,3.973c-0.04,1.165-0.341,2.2-0.902,3.105
				c-0.563,0.906-1.348,1.602-2.354,2.084c-1.008,0.482-2.143,0.703-3.404,0.66l-1.308-0.045c-1.269-0.043-2.386-0.34-3.351-0.888
				s-1.698-1.298-2.199-2.249c-0.502-0.952-0.731-2.034-0.689-3.244L465.441,270.457z M478.596,272.111l-12.18-0.418l-0.094,2.693
				c-0.051,1.496,0.404,2.714,1.366,3.652c0.962,0.939,2.29,1.438,3.983,1.496l1.25,0.043c1.635,0.056,2.959-0.346,3.973-1.203
				s1.549-2.015,1.605-3.472L478.596,272.111z"/>
			<path fill="#FFFFFF" d="M464.287,287.125c0.086-0.895,0.385-1.682,0.895-2.361c0.512-0.68,1.181-1.182,2.007-1.508
				c0.827-0.326,1.729-0.44,2.707-0.346l0.418,0.04c1.011,0.099,1.901,0.383,2.674,0.854c0.772,0.47,1.356,1.077,1.751,1.822
				c0.396,0.745,0.555,1.525,0.475,2.342c-0.123,1.277-0.658,2.246-1.602,2.911c-0.944,0.663-2.172,0.923-3.682,0.775l-0.65-0.063
				l0.728-7.504l-0.224-0.022c-1.192-0.115-2.219,0.131-3.078,0.736c-0.861,0.607-1.342,1.429-1.441,2.466
				c-0.061,0.622,0,1.183,0.18,1.681c0.181,0.498,0.502,0.966,0.963,1.402l-0.625,0.676
				C464.627,290.053,464.129,288.751,464.287,287.125z M474.222,287.873c0.085-0.875-0.165-1.643-0.747-2.305
				c-0.584-0.662-1.41-1.11-2.48-1.345l-0.611,6.309l0.126,0.013c1.014,0.064,1.864-0.144,2.553-0.626
				C473.75,289.436,474.137,288.754,474.222,287.873z"/>
			<path fill="#FFFFFF" d="M464.936,296.518l8.379,4.505l-0.178,1.188l-9.865-5.469l0.141-0.937l11.038-2.354l-0.179,1.188
				L464.936,296.518z"/>
			<path fill="#FFFFFF" d="M461.375,306.215c0.18-0.881,0.559-1.633,1.137-2.256c0.58-0.623,1.296-1.053,2.152-1.29
				c0.855-0.237,1.766-0.258,2.729-0.062l0.411,0.084c0.995,0.202,1.852,0.578,2.571,1.127c0.719,0.549,1.236,1.213,1.551,1.996
				c0.316,0.781,0.392,1.574,0.229,2.379c-0.257,1.256-0.889,2.166-1.896,2.727c-1.009,0.563-2.256,0.691-3.742,0.389l-0.641-0.131
				l1.505-7.387l-0.22-0.045c-1.174-0.24-2.221-0.103-3.139,0.412c-0.919,0.514-1.482,1.28-1.689,2.301
				c-0.125,0.612-0.125,1.176,0.004,1.69c0.127,0.515,0.397,1.013,0.811,1.495l-0.691,0.607
				C461.408,309.161,461.049,307.815,461.375,306.215z M471.178,307.994c0.176-0.861,0.008-1.652-0.504-2.371
				c-0.511-0.719-1.286-1.25-2.325-1.595l-1.267,6.21l0.125,0.025c1.002,0.171,1.869,0.053,2.604-0.355
				C470.545,309.499,471.001,308.861,471.178,307.994z"/>
			<path fill="#FFFFFF" d="M459.923,313.482l0.278-1.139l14.569,3.57l-0.278,1.138L459.923,313.482z"/>
			<path fill="#FFFFFF" d="M464.613,317.327c0.976,0.282,1.799,0.726,2.472,1.331c0.673,0.604,1.126,1.314,1.36,2.132
				s0.225,1.663-0.027,2.538c-0.392,1.352-1.182,2.309-2.372,2.872s-2.567,0.62-4.13,0.167l-0.234-0.068
				c-0.982-0.283-1.811-0.729-2.486-1.334s-1.126-1.314-1.353-2.125c-0.226-0.811-0.211-1.658,0.044-2.539
				c0.389-1.344,1.179-2.3,2.37-2.867c1.19-0.566,2.567-0.624,4.132-0.172L464.613,317.327z M463.979,318.363
				c-1.214-0.352-2.301-0.325-3.261,0.078c-0.96,0.402-1.589,1.114-1.884,2.134c-0.293,1.013-0.141,1.946,0.455,2.8
				c0.598,0.854,1.533,1.467,2.809,1.836l0.217,0.062c0.774,0.225,1.526,0.286,2.254,0.185c0.727-0.102,1.343-0.359,1.846-0.776
				c0.504-0.417,0.854-0.96,1.047-1.629c0.289-1.001,0.133-1.931-0.469-2.789c-0.604-0.859-1.539-1.472-2.809-1.841L463.979,318.363
				z"/>
			<path fill="#FFFFFF" d="M458.111,336.711c-1.553-0.549-2.663-1.33-3.331-2.34c-0.667-1.01-0.797-2.092-0.388-3.246
				c0.482-1.362,1.33-2.236,2.545-2.62l-5.081-1.801l0.388-1.096l13.789,4.887l-0.362,1.022l-1.428-0.444
				c0.808,1.094,0.969,2.322,0.487,3.685c-0.423,1.19-1.205,1.965-2.348,2.323s-2.514,0.253-4.115-0.313L458.111,336.711z
				 M458.695,335.676c1.271,0.45,2.366,0.545,3.287,0.284c0.922-0.261,1.547-0.857,1.877-1.79c0.24-0.676,0.283-1.313,0.13-1.912
				s-0.495-1.139-1.022-1.617l-4.777-1.692c-0.665,0.062-1.234,0.284-1.709,0.669s-0.83,0.91-1.067,1.58
				c-0.328,0.926-0.215,1.779,0.341,2.561S457.29,335.178,458.695,335.676z"/>
			<path fill="#FFFFFF" d="M461.707,342.43l-1.588-0.66c0.426,0.615,0.666,1.256,0.721,1.92c0.055,0.666-0.063,1.326-0.354,1.98
				c-0.674,1.524-1.729,2.215-3.16,2.072c0.449,0.611,0.707,1.277,0.775,1.999c0.07,0.721-0.05,1.43-0.358,2.126
				c-0.917,2.072-2.516,2.629-4.797,1.668l-6.447-2.854l0.474-1.072l6.368,2.818c0.866,0.377,1.587,0.475,2.167,0.292
				c0.578-0.181,1.051-0.687,1.418-1.514c0.328-0.772,0.366-1.532,0.115-2.276c-0.25-0.745-0.711-1.301-1.381-1.669l-6.395-2.83
				l0.475-1.071l6.447,2.854c0.83,0.36,1.535,0.439,2.112,0.235s1.043-0.704,1.396-1.502c0.299-0.673,0.361-1.335,0.191-1.987
				s-0.582-1.262-1.236-1.828l-6.625-2.934l0.475-1.071l9.661,4.276L461.707,342.43z"/>
			<path fill="#FFFFFF" d="M443.075,356.587c0.423-0.792,1.001-1.404,1.734-1.835c0.733-0.432,1.544-0.639,2.431-0.622
				c0.889,0.017,1.766,0.258,2.633,0.722l0.37,0.197c0.896,0.479,1.609,1.085,2.141,1.816c0.532,0.73,0.837,1.516,0.917,2.355
				c0.078,0.84-0.076,1.621-0.463,2.344c-0.605,1.131-1.471,1.822-2.598,2.072s-2.359,0.018-3.697-0.698l-0.576-0.309l3.556-6.647
				l-0.198-0.106c-1.057-0.565-2.098-0.732-3.125-0.503c-1.027,0.229-1.787,0.803-2.277,1.723c-0.295,0.551-0.455,1.091-0.48,1.62
				c-0.023,0.528,0.092,1.085,0.351,1.665l-0.836,0.383C442.264,359.42,442.304,358.027,443.075,356.587z M451.959,361.096
				c0.416-0.775,0.48-1.581,0.195-2.416c-0.283-0.834-0.875-1.566-1.771-2.193l-2.988,5.588l0.111,0.061
				c0.91,0.45,1.775,0.585,2.597,0.403C450.924,362.357,451.542,361.876,451.959,361.096z"/>
			<path fill="#FFFFFF" d="M448.781,368.417l-1.563-0.907c0.349,0.678,0.515,1.359,0.499,2.043
				c-0.018,0.684-0.212,1.331-0.585,1.942c-0.59,0.968-1.302,1.521-2.134,1.661c-0.833,0.141-1.796-0.119-2.889-0.778l-5.92-3.61
				l0.605-0.992l5.928,3.616c0.81,0.485,1.514,0.681,2.113,0.585c0.601-0.096,1.126-0.513,1.576-1.252
				c0.377-0.617,0.516-1.281,0.42-1.992c-0.097-0.71-0.402-1.38-0.92-2.008l-6.178-3.768l0.605-0.992l9.021,5.502L448.781,368.417z"
				/>
			<path fill="#FFFFFF" d="M444.563,380.105l-2.24-1.514l-1.226,1.813l-0.793-0.536l1.225-1.813l-5.841-3.945
				c-0.485-0.329-0.907-0.486-1.263-0.471c-0.356,0.014-0.673,0.227-0.95,0.637c-0.109,0.162-0.259,0.441-0.449,0.84l-0.813-0.49
				c0.08-0.315,0.268-0.691,0.563-1.129c0.449-0.663,0.967-1.016,1.558-1.057c0.589-0.042,1.259,0.19,2.009,0.697l5.843,3.947
				l1.088-1.609l0.793,0.535l-1.089,1.61l2.242,1.515L444.563,380.105z"/>
		</g>
		<g clip-path="url(#SVGID_2_)">
			<path fill="#FFFFFF" d="M336.973,462.007l6.203-2.341l-2.348-6.223l1.123-0.424l5.021,13.303l-8.241,3.109l-0.359-0.949
				l7.117-2.686l-1.954-5.182l-6.204,2.342L336.973,462.007z"/>
			<path fill="#FFFFFF" d="M325.936,459.982c0.367-1.186,1.286-2.008,2.76-2.469c1.074-0.336,1.989-0.278,2.744,0.172
				c0.754,0.449,1.328,1.284,1.723,2.505l2.051,6.563l-1.109,0.347l-2.006-6.423c-0.6-1.921-1.677-2.638-3.23-2.152
				c-1.615,0.505-2.43,1.491-2.441,2.962l2.281,7.299l-1.119,0.35l-3.15-10.086l1.081-0.338L325.936,459.982z"/>
			<path fill="#FFFFFF" d="M323.168,470.34l-0.475-1.742c-0.228,0.727-0.588,1.328-1.08,1.803c-0.492,0.477-1.086,0.8-1.78,0.974
				c-1.1,0.273-1.994,0.168-2.687-0.316c-0.69-0.485-1.193-1.347-1.51-2.583l-1.678-6.728l1.129-0.281l1.68,6.737
				c0.234,0.914,0.6,1.548,1.094,1.901c0.494,0.353,1.16,0.425,2,0.216c0.701-0.176,1.268-0.551,1.698-1.123
				c0.431-0.574,0.683-1.266,0.755-2.076l-1.75-7.021l1.127-0.281l2.557,10.252L323.168,470.34z"/>
			<path fill="#FFFFFF" d="M307.524,463.848c-0.799,0.152-1.426,0.506-1.88,1.059c-0.455,0.555-0.637,1.193-0.545,1.918
				l-1.104,0.211c-0.088-0.641,0-1.255,0.266-1.846c0.265-0.59,0.672-1.09,1.221-1.5c0.548-0.409,1.167-0.68,1.857-0.811
				c1.363-0.26,2.532,0.008,3.508,0.803c0.977,0.795,1.617,1.992,1.922,3.591l0.065,0.346c0.195,1.022,0.188,1.962-0.02,2.817
				c-0.208,0.854-0.606,1.56-1.192,2.115c-0.586,0.557-1.328,0.919-2.223,1.09c-1.139,0.217-2.143,0.057-3.01-0.481
				c-0.868-0.536-1.433-1.354-1.694-2.45l1.103-0.211c0.206,0.803,0.623,1.403,1.253,1.801c0.629,0.396,1.349,0.518,2.161,0.363
				c1.036-0.197,1.77-0.725,2.199-1.582s0.517-1.961,0.26-3.311l-0.064-0.336c-0.252-1.323-0.734-2.302-1.449-2.935
				C309.445,463.865,308.567,463.648,307.524,463.848z"/>
			<path fill="#FFFFFF" d="M301.335,477.527l-0.388-2.676l-2.166,0.313l-0.137-0.947l2.165-0.313l-1.012-6.977
				c-0.084-0.58-0.252-0.998-0.502-1.251c-0.251-0.254-0.62-0.345-1.11-0.274c-0.193,0.029-0.502,0.106-0.924,0.234l-0.184-0.933
				c0.287-0.152,0.691-0.267,1.213-0.343c0.793-0.114,1.402,0.031,1.83,0.44c0.428,0.408,0.706,1.06,0.836,1.956l1.012,6.978
				l1.924-0.278l0.137,0.947l-1.923,0.278l0.388,2.677L301.335,477.527z"/>
			<path fill="#FFFFFF" d="M293.648,465.137l1.163-0.135l1.214,10.496l-1.164,0.135L293.648,465.137z M296.58,478.506
				c0.025,0.219-0.025,0.412-0.15,0.58c-0.124,0.167-0.31,0.266-0.556,0.293c-0.245,0.029-0.45-0.023-0.612-0.158
				c-0.164-0.135-0.258-0.311-0.283-0.529c-0.024-0.219,0.026-0.41,0.154-0.574c0.129-0.165,0.316-0.262,0.563-0.289
				c0.246-0.029,0.448,0.021,0.607,0.153S296.555,478.287,296.58,478.506z"/>
			<path fill="#FFFFFF" d="M291.678,470.871c0.074,1.014-0.055,1.94-0.388,2.781c-0.333,0.84-0.842,1.513-1.526,2.018
				c-0.684,0.504-1.48,0.789-2.39,0.855c-1.401,0.104-2.575-0.304-3.517-1.223c-0.943-0.92-1.475-2.191-1.594-3.814l-0.019-0.244
				c-0.075-1.019,0.054-1.949,0.386-2.794c0.333-0.845,0.841-1.513,1.521-2.007c0.683-0.494,1.48-0.775,2.396-0.843
				c1.396-0.104,2.566,0.305,3.513,1.224c0.945,0.92,1.478,2.191,1.599,3.814L291.678,470.871z M290.484,470.637
				c-0.093-1.26-0.496-2.27-1.207-3.029c-0.713-0.761-1.598-1.102-2.656-1.023c-1.052,0.077-1.875,0.545-2.467,1.4
				c-0.594,0.857-0.841,1.948-0.743,3.272l0.017,0.224c0.06,0.806,0.264,1.531,0.611,2.178s0.805,1.134,1.371,1.461
				c0.566,0.326,1.196,0.465,1.891,0.414c1.039-0.077,1.855-0.547,2.452-1.41c0.596-0.863,0.845-1.954,0.747-3.271L290.484,470.637z
				"/>
			<path fill="#FFFFFF" d="M278.707,476.799l-0.068-1.805c-0.386,0.656-0.873,1.16-1.461,1.512c-0.587,0.35-1.238,0.531-1.955,0.541
				c-1.133,0.018-1.98-0.289-2.543-0.918c-0.563-0.63-0.857-1.583-0.883-2.858l-0.104-6.933l1.162-0.018l0.104,6.942
				c0.021,0.944,0.231,1.644,0.632,2.101c0.401,0.455,1.034,0.678,1.9,0.664c0.722-0.01,1.358-0.246,1.908-0.707
				s0.952-1.078,1.208-1.85l-0.109-7.236l1.162-0.018l0.159,10.566L278.707,476.799z"/>
			<path fill="#FFFFFF" d="M262.186,466.011c0.103,0.337,0.157,0.831,0.162,1.483c0.433-0.517,0.972-0.906,1.618-1.168
				c0.647-0.263,1.324-0.379,2.033-0.35c1.015,0.044,1.825,0.361,2.428,0.953c0.604,0.594,0.887,1.322,0.85,2.188
				c-0.043,1.027-0.506,1.822-1.387,2.385s-2.085,0.811-3.614,0.746l-2.116-0.09l-0.052,1.199c-0.032,0.754,0.176,1.358,0.623,1.811
				c0.446,0.452,1.115,0.697,2.006,0.734c0.813,0.035,1.495-0.145,2.046-0.537c0.551-0.395,0.84-0.884,0.865-1.469l1.17,0.06
				c-0.036,0.839-0.457,1.55-1.264,2.13c-0.807,0.582-1.78,0.849-2.918,0.8c-1.177-0.05-2.093-0.384-2.749-1.001
				c-0.654-0.618-0.969-1.453-0.943-2.508l0.212-4.996c0.043-1.021-0.032-1.789-0.225-2.307l0.005-0.117L262.186,466.011z
				 M265.819,467.006c-0.781-0.033-1.486,0.125-2.117,0.477c-0.631,0.352-1.1,0.837-1.406,1.455l-0.099,2.322l2.088,0.089
				c1.165,0.036,2.084-0.138,2.759-0.522c0.674-0.386,1.027-0.939,1.058-1.661c0.025-0.592-0.173-1.093-0.596-1.501
				C267.084,467.255,266.521,467.035,265.819,467.006z"/>
			<path fill="#FFFFFF" d="M256.988,465.615l1.167,0.098l-1.239,14.948l-1.168-0.097L256.988,465.615z"/>
			<path fill="#FFFFFF" d="M237.833,476.457l4.818,0.729l1.974-13.055l1.188,0.179l-1.974,13.055l4.809,0.728l-0.152,1.004
				l-10.814-1.635L237.833,476.457z"/>
			<path fill="#FFFFFF" d="M234.989,462.178c0.879,0.183,1.63,0.564,2.25,1.145c0.622,0.582,1.05,1.3,1.285,2.156
				c0.234,0.855,0.252,1.766,0.053,2.729l-0.085,0.41c-0.206,0.995-0.584,1.852-1.135,2.568c-0.55,0.717-1.217,1.232-2,1.545
				c-0.783,0.313-1.576,0.387-2.379,0.221c-1.256-0.26-2.163-0.896-2.722-1.905c-0.559-1.009-0.685-2.257-0.376-3.743l0.132-0.641
				l7.383,1.529l0.045-0.221c0.243-1.173,0.109-2.22-0.402-3.139c-0.51-0.922-1.276-1.486-2.296-1.698
				c-0.612-0.126-1.175-0.127-1.69-0.001c-0.515,0.127-1.014,0.395-1.499,0.807l-0.604-0.693
				C232.042,462.203,233.389,461.846,234.989,462.178z M233.18,471.976c0.86,0.179,1.651,0.013,2.371-0.496
				c0.721-0.509,1.255-1.282,1.603-2.321l-6.207-1.285l-0.026,0.125c-0.174,1.002-0.058,1.869,0.349,2.605
				C231.676,471.338,232.312,471.797,233.18,471.976z"/>
			<path fill="#FFFFFF" d="M222.219,462.035c-0.148,0.561-0.042,1.07,0.318,1.529c0.359,0.459,0.968,0.904,1.823,1.336
				c0.855,0.433,1.5,0.839,1.935,1.221c0.435,0.381,0.726,0.783,0.873,1.205c0.147,0.424,0.153,0.889,0.018,1.398
				c-0.213,0.806-0.726,1.383-1.539,1.729s-1.744,0.382-2.795,0.104c-1.14-0.302-1.979-0.825-2.519-1.571s-0.69-1.572-0.45-2.478
				l1.133,0.3c-0.158,0.598-0.04,1.162,0.356,1.69s0.973,0.894,1.735,1.096c0.742,0.196,1.383,0.19,1.92-0.021
				s0.876-0.582,1.017-1.11c0.134-0.51,0.052-0.954-0.249-1.334c-0.3-0.379-0.915-0.816-1.844-1.311
				c-0.93-0.496-1.606-0.941-2.031-1.336c-0.424-0.396-0.706-0.811-0.847-1.245c-0.141-0.435-0.141-0.917-0.001-1.444
				c0.229-0.863,0.759-1.46,1.591-1.791c0.832-0.333,1.808-0.351,2.928-0.053c1.189,0.314,2.078,0.857,2.665,1.629
				c0.587,0.771,0.764,1.598,0.531,2.479l-1.133-0.299c0.131-0.673-0.011-1.262-0.427-1.766s-1.045-0.867-1.888-1.09
				c-0.786-0.209-1.468-0.205-2.044,0.014C222.718,461.134,222.359,461.508,222.219,462.035z"/>
			<path fill="#FFFFFF" d="M213.731,470.535l0.807-2.582l-2.088-0.653l0.286-0.913l2.088,0.652l2.103-6.728
				c0.176-0.561,0.205-1.009,0.088-1.345c-0.116-0.338-0.411-0.58-0.882-0.728c-0.187-0.058-0.498-0.121-0.934-0.188l0.236-0.921
				c0.325-0.013,0.739,0.059,1.242,0.216c0.764,0.238,1.251,0.635,1.46,1.188c0.209,0.554,0.178,1.262-0.092,2.126l-2.104,6.729
				l1.854,0.58l-0.285,0.914l-1.855-0.581l-0.807,2.582L213.731,470.535z"/>
			<path fill="#FFFFFF" d="M209.029,469.363c-0.072,0.208-0.2,0.361-0.386,0.457c-0.185,0.098-0.395,0.106-0.628,0.025
				c-0.234-0.081-0.396-0.217-0.484-0.408c-0.089-0.191-0.098-0.392-0.026-0.6c0.072-0.207,0.201-0.357,0.388-0.451
				s0.398-0.1,0.631-0.018c0.234,0.08,0.395,0.214,0.481,0.401C209.093,468.957,209.101,469.156,209.029,469.363z M212.168,456.041
				l1.108,0.382l-3.446,9.989l-1.108-0.383L212.168,456.041z"/>
			<path fill="#FFFFFF" d="M204.401,464.488l0.623-1.697c-0.607,0.462-1.249,0.743-1.926,0.846c-0.676,0.102-1.347,0.021-2.015-0.24
				c-1.054-0.413-1.723-1.018-2.005-1.814c-0.282-0.795-0.193-1.789,0.267-2.979l2.531-6.455l1.082,0.424l-2.535,6.465
				c-0.339,0.881-0.409,1.608-0.21,2.182c0.198,0.574,0.7,1.02,1.506,1.336c0.673,0.264,1.351,0.287,2.035,0.068
				c0.683-0.219,1.29-0.635,1.818-1.254l2.641-6.736l1.082,0.424l-3.857,9.838L204.401,464.488z"/>
			<path fill="#FFFFFF" d="M197.453,456.125c-0.694,1.501-1.576,2.537-2.646,3.107c-1.071,0.57-2.176,0.592-3.317,0.064
				c-1.306-0.604-2.059-1.582-2.257-2.936l-0.692,1.357l-0.993-0.459l4.342-9.396c0.57-1.234,1.368-2.053,2.393-2.455
				s2.128-0.329,3.31,0.217c0.668,0.309,1.236,0.752,1.704,1.33c0.468,0.579,0.762,1.197,0.881,1.854l-0.889,0.365
				c-0.325-1.27-1.004-2.143-2.039-2.621c-0.886-0.408-1.698-0.467-2.437-0.174c-0.738,0.294-1.33,0.9-1.776,1.82l-0.558,1.206
				c1.117-0.632,2.325-0.647,3.625-0.046c1.111,0.513,1.799,1.369,2.063,2.566c0.265,1.197,0.048,2.551-0.648,4.057L197.453,456.125
				z M196.467,455.443c0.565-1.225,0.766-2.302,0.601-3.234c-0.164-0.934-0.692-1.605-1.585-2.019
				c-1.306-0.603-2.501-0.445-3.586,0.474l-2.06,4.459c-0.036,0.729,0.105,1.363,0.424,1.9c0.317,0.537,0.805,0.959,1.46,1.262
				c0.893,0.412,1.749,0.383,2.569-0.088C195.111,457.727,195.836,456.809,196.467,455.443z"/>
		</g>
		<g clip-path="url(#SVGID_2_)">
			<path fill="#FFFFFF" d="M92.297,361.393l3.432,5.674l5.69-3.442l0.622,1.028l-12.166,7.359l-4.56-7.537l0.869-0.525l3.938,6.509
				l4.736-2.866l-3.432-5.674L92.297,361.393z"/>
			<path fill="#FFFFFF" d="M94.888,351.836c0.421,0.793,0.606,1.615,0.555,2.463c-0.051,0.85-0.331,1.637-0.841,2.365
				c-0.51,0.727-1.199,1.32-2.066,1.781l-0.371,0.197c-0.898,0.475-1.798,0.73-2.701,0.764s-1.727-0.152-2.467-0.555
				c-0.74-0.403-1.303-0.967-1.688-1.691c-0.602-1.133-0.691-2.238-0.27-3.313s1.302-1.967,2.642-2.678l0.578-0.307l3.532,6.66
				l0.199-0.105c1.059-0.561,1.778-1.332,2.161-2.313s0.33-1.93-0.158-2.851c-0.293-0.552-0.651-0.986-1.077-1.302
				c-0.426-0.316-0.951-0.529-1.578-0.64l0.149-0.907C92.988,349.582,94.121,350.393,94.888,351.836z M86.188,356.693
				c0.412,0.775,1.044,1.279,1.896,1.51c0.852,0.229,1.788,0.146,2.809-0.247l-2.969-5.599l-0.113,0.059
				c-0.881,0.506-1.476,1.148-1.783,1.931S85.773,355.911,86.188,356.693z"/>
			<path fill="#FFFFFF" d="M90.41,342.75c0.377,0.816,0.518,1.646,0.42,2.491s-0.42,1.616-0.969,2.314s-1.27,1.253-2.162,1.666
				l-0.381,0.176c-0.922,0.427-1.836,0.632-2.739,0.615s-1.715-0.246-2.433-0.688c-0.717-0.443-1.248-1.037-1.592-1.781
				c-0.538-1.165-0.567-2.271-0.088-3.322c0.479-1.05,1.407-1.893,2.785-2.529l0.594-0.273l3.162,6.844l0.204-0.096
				c1.087-0.502,1.849-1.232,2.284-2.19c0.438-0.958,0.436-1.909-0.002-2.855c-0.262-0.567-0.596-1.021-1.004-1.359
				s-0.921-0.58-1.539-0.724l0.197-0.899C88.638,340.396,89.725,341.268,90.41,342.75z M81.459,347.124
				c0.369,0.798,0.972,1.335,1.81,1.612c0.837,0.275,1.776,0.245,2.819-0.093l-2.66-5.753l-0.115,0.053
				c-0.908,0.455-1.537,1.065-1.887,1.83C81.076,345.537,81.088,346.32,81.459,347.124z"/>
			<path fill="#FFFFFF" d="M82.924,339.717c-1.526,0.603-2.876,0.742-4.051,0.418c-1.174-0.323-1.992-1.069-2.453-2.238
				c-0.523-1.326-0.399-2.544,0.373-3.654l-5.514,2.177l-0.427-1.081l13.952-5.509l0.401,1.018l-1.29,0.562
				c1.268,0.305,2.169,1.132,2.701,2.482c0.448,1.133,0.354,2.225-0.285,3.277c-0.637,1.054-1.73,1.887-3.281,2.498L82.924,339.717z
				 M82.68,338.543c1.254-0.496,2.145-1.137,2.668-1.926c0.526-0.788,0.608-1.64,0.247-2.553c-0.528-1.34-1.495-2.057-2.897-2.153
				l-4.614,1.821c-1.056,1.068-1.321,2.266-0.798,3.591c0.361,0.915,1.001,1.484,1.92,1.71
				C80.123,339.258,81.281,339.096,82.68,338.543z"/>
			<path fill="#FFFFFF" d="M76.257,320.664c1.565-0.514,2.921-0.576,4.066-0.186c1.146,0.391,1.911,1.172,2.296,2.34
				c0.459,1.398,0.286,2.627-0.518,3.686l1.389-0.404l0.342,1.039l-14.25,4.682l-0.363-1.104l5.668-1.862
				c-1.326-0.346-2.217-1.211-2.672-2.596c-0.391-1.188-0.246-2.275,0.434-3.263s1.827-1.746,3.441-2.276L76.257,320.664z
				 M76.428,321.841c-1.324,0.435-2.262,1.027-2.813,1.778c-0.553,0.75-0.676,1.592-0.369,2.525
				c0.234,0.711,0.607,1.257,1.119,1.637c0.513,0.38,1.146,0.586,1.904,0.619l4.527-1.488c1.079-0.971,1.387-2.162,0.924-3.572
				c-0.301-0.915-0.898-1.512-1.791-1.791C79.036,321.271,77.869,321.367,76.428,321.841z"/>
			<path fill="#FFFFFF" d="M78.797,310.301c-0.291,0.197-0.746,0.396-1.367,0.596c0.621,0.259,1.153,0.658,1.596,1.197
				c0.443,0.539,0.756,1.151,0.938,1.837c0.261,0.981,0.198,1.85-0.188,2.602c-0.386,0.753-0.997,1.24-1.835,1.462
				c-0.993,0.266-1.89,0.061-2.688-0.613c-0.8-0.674-1.396-1.75-1.788-3.229l-0.544-2.048l-1.161,0.308
				c-0.73,0.195-1.244,0.572-1.543,1.134c-0.299,0.561-0.334,1.272-0.105,2.134c0.21,0.787,0.584,1.385,1.124,1.793
				c0.54,0.41,1.093,0.539,1.659,0.389l0.291,1.135c-0.811,0.216-1.615,0.025-2.41-0.572c-0.795-0.597-1.34-1.445-1.632-2.547
				c-0.302-1.139-0.257-2.113,0.138-2.922c0.396-0.809,1.1-1.357,2.114-1.648l4.833-1.283c0.986-0.263,1.699-0.563,2.135-0.901
				l0.113-0.029L78.797,310.301z M78.929,314.064c-0.201-0.754-0.563-1.381-1.086-1.879c-0.522-0.498-1.125-0.801-1.808-0.908
				l-2.246,0.596l0.537,2.02c0.313,1.124,0.752,1.949,1.32,2.479c0.568,0.529,1.201,0.7,1.9,0.515
				c0.572-0.152,0.991-0.49,1.256-1.016C79.066,315.347,79.109,314.744,78.929,314.064z"/>
			<path fill="#FFFFFF" d="M76.322,302.891c-0.164-0.797-0.527-1.418-1.089-1.863c-0.561-0.445-1.202-0.617-1.926-0.514l-0.228-1.1
				c0.637-0.1,1.254-0.021,1.848,0.234c0.596,0.256,1.102,0.654,1.52,1.197c0.418,0.541,0.699,1.156,0.842,1.844
				c0.281,1.359,0.031,2.533-0.748,3.521c-0.778,0.99-1.965,1.648-3.559,1.979l-0.344,0.072c-1.021,0.211-1.96,0.219-2.818,0.025
				c-0.857-0.195-1.568-0.582-2.135-1.159c-0.564-0.578-0.939-1.313-1.125-2.206c-0.234-1.135-0.09-2.14,0.434-3.016
				c0.522-0.877,1.331-1.455,2.423-1.734l0.228,1.1c-0.799,0.219-1.393,0.646-1.779,1.281c-0.387,0.636-0.496,1.358-0.328,2.168
				c0.213,1.032,0.752,1.757,1.617,2.173c0.863,0.416,1.967,0.485,3.313,0.206l0.336-0.069c1.318-0.272,2.289-0.771,2.91-1.495
				C76.335,304.812,76.537,303.93,76.322,302.891z"/>
			<path fill="#FFFFFF" d="M70.277,294.94l1.476,1.128l3.988-0.605l0.176,1.158l-14.829,2.256l-0.176-1.158l9.49-1.443l-1.344-0.912
				l-4.538-3.399l-0.222-1.458l5.076,3.762l5.311-5.737l0.211,1.38L70.277,294.94z"/>
		</g>
		<use xlink:href="#SVGID_1_"  overflow="visible" fill="none" stroke="#FFFFFF" stroke-miterlimit="10"/>
	</g>
</g>
<g id="Capa_10">
	<circle fill="#FFFFFF" cx="270" cy="268.5" r="162.96"/>
	<g>
		<path fill="#474747" d="M161.859,245.27h-5.848v15.844h-1.441V245.27h-5.836v-1.219h13.125V245.27z"/>
		<path fill="#474747" d="M165.68,250.579c0.461-0.758,1.051-1.344,1.77-1.758s1.504-0.621,2.355-0.621
			c1.359,0,2.371,0.383,3.035,1.148s1,1.914,1.008,3.445v8.32h-1.395v-8.332c-0.008-1.133-0.248-1.977-0.721-2.531
			s-1.229-0.832-2.268-0.832c-0.867,0-1.635,0.271-2.303,0.814s-1.162,1.275-1.482,2.197v8.684h-1.395v-18h1.395V250.579z"/>
		<path fill="#474747" d="M182.367,261.348c-1.078,0-2.053-0.266-2.924-0.797s-1.549-1.271-2.033-2.221s-0.727-2.014-0.727-3.193
			v-0.504c0-1.219,0.236-2.316,0.709-3.293s1.131-1.744,1.975-2.303s1.758-0.838,2.742-0.838c1.539,0,2.76,0.525,3.662,1.576
			s1.354,2.486,1.354,4.307v0.785h-9.047v0.27c0,1.438,0.412,2.635,1.236,3.592s1.861,1.436,3.111,1.436
			c0.75,0,1.412-0.137,1.986-0.41s1.096-0.711,1.564-1.313l0.879,0.668C185.824,260.602,184.328,261.348,182.367,261.348z
			 M182.109,249.395c-1.055,0-1.943,0.387-2.666,1.16s-1.162,1.813-1.318,3.117h7.605v-0.152c-0.039-1.219-0.387-2.211-1.043-2.977
			S183.172,249.395,182.109,249.395z"/>
		<path fill="#474747" d="M197.449,257.891c0-0.695-0.279-1.254-0.838-1.676s-1.4-0.752-2.525-0.99s-1.998-0.512-2.619-0.82
			s-1.082-0.686-1.383-1.131s-0.451-0.984-0.451-1.617c0-1,0.418-1.826,1.254-2.479s1.906-0.979,3.211-0.979
			c1.414,0,2.549,0.35,3.404,1.049s1.283,1.611,1.283,2.736h-1.406c0-0.742-0.311-1.359-0.932-1.852s-1.404-0.738-2.35-0.738
			c-0.922,0-1.662,0.205-2.221,0.615s-0.838,0.943-0.838,1.6c0,0.633,0.232,1.123,0.697,1.471s1.313,0.666,2.543,0.955
			s2.152,0.598,2.766,0.926s1.068,0.723,1.365,1.184s0.445,1.02,0.445,1.676c0,1.07-0.432,1.926-1.295,2.566
			s-1.99,0.961-3.381,0.961c-1.477,0-2.674-0.357-3.592-1.072s-1.377-1.619-1.377-2.713h1.406c0.055,0.82,0.4,1.459,1.037,1.916
			s1.479,0.686,2.525,0.686c0.977,0,1.766-0.215,2.367-0.645S197.449,258.547,197.449,257.891z"/>
		<path fill="#474747" d="M206.918,261.348c-1.078,0-2.053-0.266-2.924-0.797s-1.549-1.271-2.033-2.221s-0.727-2.014-0.727-3.193
			v-0.504c0-1.219,0.236-2.316,0.709-3.293s1.131-1.744,1.975-2.303s1.758-0.838,2.742-0.838c1.539,0,2.76,0.525,3.662,1.576
			s1.354,2.486,1.354,4.307v0.785h-9.047v0.27c0,1.438,0.412,2.635,1.236,3.592s1.861,1.436,3.111,1.436
			c0.75,0,1.412-0.137,1.986-0.41s1.096-0.711,1.564-1.313l0.879,0.668C210.375,260.602,208.879,261.348,206.918,261.348z
			 M206.66,249.395c-1.055,0-1.943,0.387-2.666,1.16s-1.162,1.813-1.318,3.117h7.605v-0.152c-0.039-1.219-0.387-2.211-1.043-2.977
			S207.723,249.395,206.66,249.395z"/>
		<path fill="#474747" d="M230.438,254.903c0,1.977-0.438,3.545-1.313,4.705s-2.047,1.74-3.516,1.74
			c-1.734,0-3.063-0.609-3.984-1.828v6.469h-1.395v-17.555h1.301l0.07,1.793c0.914-1.352,2.238-2.027,3.973-2.027
			c1.516,0,2.705,0.574,3.568,1.723s1.295,2.742,1.295,4.781V254.903z M229.031,254.657c0-1.617-0.332-2.895-0.996-3.832
			s-1.59-1.406-2.777-1.406c-0.859,0-1.598,0.207-2.215,0.621s-1.09,1.016-1.418,1.805v6.082c0.336,0.727,0.816,1.281,1.441,1.664
			s1.363,0.574,2.215,0.574c1.18,0,2.1-0.471,2.76-1.412S229.031,256.446,229.031,254.657z"/>
		<path fill="#474747" d="M239.402,249.629c-0.297-0.055-0.613-0.082-0.949-0.082c-0.875,0-1.615,0.244-2.221,0.732
			s-1.037,1.197-1.295,2.127v8.707h-1.395v-12.68h1.371l0.023,2.016c0.742-1.5,1.934-2.25,3.574-2.25
			c0.391,0,0.699,0.051,0.926,0.152L239.402,249.629z"/>
		<path fill="#474747" d="M240.609,254.586c0-1.219,0.236-2.316,0.709-3.293s1.141-1.736,2.004-2.279s1.842-0.814,2.936-0.814
			c1.688,0,3.055,0.592,4.102,1.775s1.57,2.752,1.57,4.705v0.293c0,1.227-0.236,2.33-0.709,3.311s-1.139,1.736-1.998,2.268
			s-1.84,0.797-2.941,0.797c-1.68,0-3.045-0.592-4.096-1.775s-1.576-2.752-1.576-4.705V254.586z M242.016,254.973
			c0,1.516,0.393,2.76,1.178,3.732s1.814,1.459,3.088,1.459c1.266,0,2.291-0.486,3.076-1.459s1.178-2.256,1.178-3.85v-0.27
			c0-0.969-0.18-1.855-0.539-2.66s-0.863-1.428-1.512-1.869s-1.391-0.662-2.227-0.662c-1.25,0-2.27,0.49-3.059,1.471
			s-1.184,2.264-1.184,3.85V254.973z"/>
		<path fill="#474747" d="M259.512,260.165c0.977,0,1.795-0.275,2.455-0.826s1.018-1.264,1.072-2.139h1.348
			c-0.039,0.773-0.281,1.479-0.727,2.115s-1.037,1.135-1.775,1.494s-1.529,0.539-2.373,0.539c-1.664,0-2.982-0.578-3.955-1.734
			s-1.459-2.711-1.459-4.664v-0.422c0-1.25,0.219-2.355,0.656-3.316s1.064-1.703,1.881-2.227s1.771-0.785,2.865-0.785
			c1.391,0,2.537,0.414,3.439,1.242s1.385,1.918,1.447,3.27h-1.348c-0.063-0.992-0.42-1.793-1.072-2.402s-1.475-0.914-2.467-0.914
			c-1.266,0-2.248,0.457-2.947,1.371s-1.049,2.195-1.049,3.844v0.41c0,1.617,0.35,2.879,1.049,3.785
			S258.238,260.165,259.512,260.165z"/>
		<path fill="#474747" d="M272.098,261.348c-1.078,0-2.053-0.266-2.924-0.797s-1.549-1.271-2.033-2.221s-0.727-2.014-0.727-3.193
			v-0.504c0-1.219,0.236-2.316,0.709-3.293s1.131-1.744,1.975-2.303s1.758-0.838,2.742-0.838c1.539,0,2.76,0.525,3.662,1.576
			s1.354,2.486,1.354,4.307v0.785h-9.047v0.27c0,1.438,0.412,2.635,1.236,3.592s1.861,1.436,3.111,1.436
			c0.75,0,1.412-0.137,1.986-0.41s1.096-0.711,1.564-1.313l0.879,0.668C275.555,260.602,274.059,261.348,272.098,261.348z
			 M271.84,249.395c-1.055,0-1.943,0.387-2.666,1.16s-1.162,1.813-1.318,3.117h7.605v-0.152c-0.039-1.219-0.387-2.211-1.043-2.977
			S272.902,249.395,271.84,249.395z"/>
		<path fill="#474747" d="M287.18,257.891c0-0.695-0.279-1.254-0.838-1.676s-1.4-0.752-2.525-0.99s-1.998-0.512-2.619-0.82
			s-1.082-0.686-1.383-1.131s-0.451-0.984-0.451-1.617c0-1,0.418-1.826,1.254-2.479s1.906-0.979,3.211-0.979
			c1.414,0,2.549,0.35,3.404,1.049s1.283,1.611,1.283,2.736h-1.406c0-0.742-0.311-1.359-0.932-1.852s-1.404-0.738-2.35-0.738
			c-0.922,0-1.662,0.205-2.221,0.615s-0.838,0.943-0.838,1.6c0,0.633,0.232,1.123,0.697,1.471s1.313,0.666,2.543,0.955
			s2.152,0.598,2.766,0.926s1.068,0.723,1.365,1.184s0.445,1.02,0.445,1.676c0,1.07-0.432,1.926-1.295,2.566
			s-1.99,0.961-3.381,0.961c-1.477,0-2.674-0.357-3.592-1.072s-1.377-1.619-1.377-2.713h1.406c0.055,0.82,0.4,1.459,1.037,1.916
			s1.479,0.686,2.525,0.686c0.977,0,1.766-0.215,2.367-0.645S287.18,258.547,287.18,257.891z"/>
		<path fill="#474747" d="M299.332,257.891c0-0.695-0.279-1.254-0.838-1.676s-1.4-0.752-2.525-0.99s-1.998-0.512-2.619-0.82
			s-1.082-0.686-1.383-1.131s-0.451-0.984-0.451-1.617c0-1,0.418-1.826,1.254-2.479s1.906-0.979,3.211-0.979
			c1.414,0,2.549,0.35,3.404,1.049s1.283,1.611,1.283,2.736h-1.406c0-0.742-0.311-1.359-0.932-1.852s-1.404-0.738-2.35-0.738
			c-0.922,0-1.662,0.205-2.221,0.615s-0.838,0.943-0.838,1.6c0,0.633,0.232,1.123,0.697,1.471s1.313,0.666,2.543,0.955
			s2.152,0.598,2.766,0.926s1.068,0.723,1.365,1.184s0.445,1.02,0.445,1.676c0,1.07-0.432,1.926-1.295,2.566
			s-1.99,0.961-3.381,0.961c-1.477,0-2.674-0.357-3.592-1.072s-1.377-1.619-1.377-2.713h1.406c0.055,0.82,0.4,1.459,1.037,1.916
			s1.479,0.686,2.525,0.686c0.977,0,1.766-0.215,2.367-0.645S299.332,258.547,299.332,257.891z"/>
		<path fill="#474747" d="M308.801,261.348c-1.078,0-2.053-0.266-2.924-0.797s-1.549-1.271-2.033-2.221s-0.727-2.014-0.727-3.193
			v-0.504c0-1.219,0.236-2.316,0.709-3.293s1.131-1.744,1.975-2.303s1.758-0.838,2.742-0.838c1.539,0,2.76,0.525,3.662,1.576
			s1.354,2.486,1.354,4.307v0.785h-9.047v0.27c0,1.438,0.412,2.635,1.236,3.592s1.861,1.436,3.111,1.436
			c0.75,0,1.412-0.137,1.986-0.41s1.096-0.711,1.564-1.313l0.879,0.668C312.258,260.602,310.762,261.348,308.801,261.348z
			 M308.543,249.395c-1.055,0-1.943,0.387-2.666,1.16s-1.162,1.813-1.318,3.117h7.605v-0.152c-0.039-1.219-0.387-2.211-1.043-2.977
			S309.605,249.395,308.543,249.395z"/>
		<path fill="#474747" d="M323.883,257.891c0-0.695-0.279-1.254-0.838-1.676s-1.4-0.752-2.525-0.99s-1.998-0.512-2.619-0.82
			s-1.082-0.686-1.383-1.131s-0.451-0.984-0.451-1.617c0-1,0.418-1.826,1.254-2.479s1.906-0.979,3.211-0.979
			c1.414,0,2.549,0.35,3.404,1.049s1.283,1.611,1.283,2.736h-1.406c0-0.742-0.311-1.359-0.932-1.852s-1.404-0.738-2.35-0.738
			c-0.922,0-1.662,0.205-2.221,0.615s-0.838,0.943-0.838,1.6c0,0.633,0.232,1.123,0.697,1.471s1.313,0.666,2.543,0.955
			s2.152,0.598,2.766,0.926s1.068,0.723,1.365,1.184s0.445,1.02,0.445,1.676c0,1.07-0.432,1.926-1.295,2.566
			s-1.99,0.961-3.381,0.961c-1.477,0-2.674-0.357-3.592-1.072s-1.377-1.619-1.377-2.713h1.406c0.055,0.82,0.4,1.459,1.037,1.916
			s1.479,0.686,2.525,0.686c0.977,0,1.766-0.215,2.367-0.645S323.883,258.547,323.883,257.891z"/>
		<path fill="#474747" d="M333.504,254.586c0-1.219,0.236-2.316,0.709-3.293s1.141-1.736,2.004-2.279s1.842-0.814,2.936-0.814
			c1.688,0,3.055,0.592,4.102,1.775s1.57,2.752,1.57,4.705v0.293c0,1.227-0.236,2.33-0.709,3.311s-1.139,1.736-1.998,2.268
			s-1.84,0.797-2.941,0.797c-1.68,0-3.045-0.592-4.096-1.775s-1.576-2.752-1.576-4.705V254.586z M334.91,254.973
			c0,1.516,0.393,2.76,1.178,3.732s1.814,1.459,3.088,1.459c1.266,0,2.291-0.486,3.076-1.459s1.178-2.256,1.178-3.85v-0.27
			c0-0.969-0.18-1.855-0.539-2.66s-0.863-1.428-1.512-1.869s-1.391-0.662-2.227-0.662c-1.25,0-2.27,0.49-3.059,1.471
			s-1.184,2.264-1.184,3.85V254.973z"/>
		<path fill="#474747" d="M352.406,260.165c0.977,0,1.795-0.275,2.455-0.826s1.018-1.264,1.072-2.139h1.348
			c-0.039,0.773-0.281,1.479-0.727,2.115s-1.037,1.135-1.775,1.494s-1.529,0.539-2.373,0.539c-1.664,0-2.982-0.578-3.955-1.734
			s-1.459-2.711-1.459-4.664v-0.422c0-1.25,0.219-2.355,0.656-3.316s1.064-1.703,1.881-2.227s1.771-0.785,2.865-0.785
			c1.391,0,2.537,0.414,3.439,1.242s1.385,1.918,1.447,3.27h-1.348c-0.063-0.992-0.42-1.793-1.072-2.402s-1.475-0.914-2.467-0.914
			c-1.266,0-2.248,0.457-2.947,1.371s-1.049,2.195-1.049,3.844v0.41c0,1.617,0.35,2.879,1.049,3.785
			S351.133,260.165,352.406,260.165z"/>
		<path fill="#474747" d="M364.77,260.165c0.977,0,1.795-0.275,2.455-0.826s1.018-1.264,1.072-2.139h1.348
			c-0.039,0.773-0.281,1.479-0.727,2.115s-1.037,1.135-1.775,1.494s-1.529,0.539-2.373,0.539c-1.664,0-2.982-0.578-3.955-1.734
			s-1.459-2.711-1.459-4.664v-0.422c0-1.25,0.219-2.355,0.656-3.316s1.064-1.703,1.881-2.227s1.771-0.785,2.865-0.785
			c1.391,0,2.537,0.414,3.439,1.242s1.385,1.918,1.447,3.27h-1.348c-0.063-0.992-0.42-1.793-1.072-2.402s-1.475-0.914-2.467-0.914
			c-1.266,0-2.248,0.457-2.947,1.371s-1.049,2.195-1.049,3.844v0.41c0,1.617,0.35,2.879,1.049,3.785S363.496,260.165,364.77,260.165
			z"/>
		<path fill="#474747" d="M380.602,259.508c-0.844,1.227-2.191,1.84-4.043,1.84c-1.352,0-2.379-0.393-3.082-1.178
			s-1.063-1.947-1.078-3.486v-8.25h1.395v8.074c0,2.414,0.977,3.621,2.93,3.621c2.031,0,3.316-0.84,3.855-2.52v-9.176h1.406v12.68
			h-1.359L380.602,259.508z"/>
		<path fill="#474747" d="M391.488,249.629c-0.297-0.055-0.613-0.082-0.949-0.082c-0.875,0-1.615,0.244-2.221,0.732
			s-1.037,1.197-1.295,2.127v8.707h-1.395v-12.68H387l0.023,2.016c0.742-1.5,1.934-2.25,3.574-2.25c0.391,0,0.699,0.051,0.926,0.152
			L391.488,249.629z"/>
		<path fill="#474747" d="M176.063,283.387c0-1.219,0.236-2.316,0.709-3.293s1.141-1.736,2.004-2.279s1.842-0.814,2.936-0.814
			c1.688,0,3.055,0.592,4.102,1.775s1.57,2.752,1.57,4.705v0.293c0,1.227-0.236,2.33-0.709,3.311s-1.139,1.736-1.998,2.268
			s-1.84,0.797-2.941,0.797c-1.68,0-3.045-0.592-4.096-1.775s-1.576-2.752-1.576-4.705V283.387z M177.469,283.773
			c0,1.516,0.393,2.76,1.178,3.732s1.814,1.459,3.088,1.459c1.266,0,2.291-0.486,3.076-1.459s1.178-2.256,1.178-3.85v-0.27
			c0-0.969-0.18-1.855-0.539-2.66s-0.863-1.428-1.512-1.869s-1.391-0.662-2.227-0.662c-1.25,0-2.27,0.49-3.059,1.471
			s-1.184,2.264-1.184,3.85V283.773z"/>
		<path fill="#474747" d="M191.613,277.234l0.047,2.168c0.477-0.781,1.07-1.377,1.781-1.787s1.496-0.615,2.355-0.615
			c1.359,0,2.371,0.383,3.035,1.148s1,1.914,1.008,3.445v8.32h-1.395v-8.332c-0.008-1.133-0.248-1.977-0.721-2.531
			s-1.229-0.832-2.268-0.832c-0.867,0-1.635,0.271-2.303,0.814s-1.162,1.275-1.482,2.197v8.684h-1.395v-12.68H191.613z"/>
		<path fill="#474747" d="M217.301,289.914c-0.141-0.398-0.23-0.988-0.27-1.77c-0.492,0.641-1.119,1.135-1.881,1.482
			s-1.568,0.521-2.42,0.521c-1.219,0-2.205-0.34-2.959-1.02s-1.131-1.539-1.131-2.578c0-1.234,0.514-2.211,1.541-2.93
			s2.459-1.078,4.295-1.078h2.543v-1.441c0-0.906-0.279-1.619-0.838-2.139s-1.373-0.779-2.443-0.779c-0.977,0-1.785,0.25-2.426,0.75
			s-0.961,1.102-0.961,1.805l-1.406-0.012c0-1.008,0.469-1.881,1.406-2.619s2.09-1.107,3.457-1.107c1.414,0,2.529,0.354,3.346,1.061
			s1.236,1.693,1.26,2.959v6c0,1.227,0.129,2.145,0.387,2.754v0.141H217.301z M212.895,288.906c0.938,0,1.775-0.227,2.514-0.68
			s1.275-1.059,1.611-1.816v-2.789h-2.508c-1.398,0.016-2.492,0.271-3.281,0.768s-1.184,1.178-1.184,2.045
			c0,0.711,0.264,1.301,0.791,1.77S212.051,288.906,212.895,288.906z"/>
		<path fill="#474747" d="M231.023,286.996l0.211,1.09l0.281-1.148l3.047-9.703h1.195l3.012,9.621l0.328,1.336l0.27-1.23
			l2.602-9.727h1.453l-3.691,12.68h-1.195l-3.258-10.055l-0.152-0.691l-0.152,0.703l-3.199,10.043h-1.195l-3.68-12.68h1.441
			L231.023,286.996z"/>
		<path fill="#474747" d="M250.992,290.148c-1.078,0-2.053-0.266-2.924-0.797s-1.549-1.271-2.033-2.221s-0.727-2.014-0.727-3.193
			v-0.504c0-1.219,0.236-2.316,0.709-3.293s1.131-1.744,1.975-2.303S249.75,277,250.734,277c1.539,0,2.76,0.525,3.662,1.576
			s1.354,2.486,1.354,4.307v0.785h-9.047v0.27c0,1.438,0.412,2.635,1.236,3.592s1.861,1.436,3.111,1.436
			c0.75,0,1.412-0.137,1.986-0.41s1.096-0.711,1.564-1.313l0.879,0.668C254.449,289.402,252.953,290.148,250.992,290.148z
			 M250.734,278.195c-1.055,0-1.943,0.387-2.666,1.16s-1.162,1.813-1.318,3.117h7.605v-0.152c-0.039-1.219-0.387-2.211-1.043-2.977
			S251.797,278.195,250.734,278.195z"/>
		<path fill="#474747" d="M263.391,290.148c-1.078,0-2.053-0.266-2.924-0.797s-1.549-1.271-2.033-2.221s-0.727-2.014-0.727-3.193
			v-0.504c0-1.219,0.236-2.316,0.709-3.293s1.131-1.744,1.975-2.303s1.758-0.838,2.742-0.838c1.539,0,2.76,0.525,3.662,1.576
			s1.354,2.486,1.354,4.307v0.785h-9.047v0.27c0,1.438,0.412,2.635,1.236,3.592s1.861,1.436,3.111,1.436
			c0.75,0,1.412-0.137,1.986-0.41s1.096-0.711,1.564-1.313l0.879,0.668C266.848,289.402,265.352,290.148,263.391,290.148z
			 M263.133,278.195c-1.055,0-1.943,0.387-2.666,1.16s-1.162,1.813-1.318,3.117h7.605v-0.152c-0.039-1.219-0.387-2.211-1.043-2.977
			S264.195,278.195,263.133,278.195z"/>
		<path fill="#474747" d="M273.891,283.527l-1.605,1.547v4.84h-1.406v-18h1.406v11.52l1.324-1.43l4.852-4.77h1.77l-5.379,5.344
			l5.848,7.336h-1.676L273.891,283.527z"/>
		<path fill="#474747" d="M284.203,289.914h-1.406v-18h1.406V289.914z"/>
		<path fill="#474747" d="M292.031,287.898l3.703-10.664h1.512l-5.414,14.836l-0.281,0.656c-0.695,1.539-1.77,2.309-3.223,2.309
			c-0.336,0-0.695-0.055-1.078-0.164l-0.012-1.16l0.727,0.07c0.688,0,1.244-0.17,1.67-0.51s0.787-0.924,1.084-1.752l0.621-1.711
			l-4.781-12.574h1.535L292.031,287.898z"/>
		<path fill="#474747" d="M315.457,283.703c0,1.977-0.438,3.545-1.313,4.705s-2.051,1.74-3.527,1.74
			c-1.766,0-3.102-0.656-4.008-1.969l-0.059,1.734h-1.313v-18h1.395v7.16c0.891-1.383,2.211-2.074,3.961-2.074
			c1.5,0,2.686,0.572,3.557,1.717s1.307,2.736,1.307,4.775V283.703z M314.051,283.457c0-1.672-0.324-2.963-0.973-3.873
			s-1.563-1.365-2.742-1.365c-0.898,0-1.66,0.221-2.285,0.662s-1.098,1.088-1.418,1.939v5.719c0.703,1.594,1.945,2.391,3.727,2.391
			c1.156,0,2.061-0.457,2.713-1.371S314.051,285.277,314.051,283.457z"/>
		<path fill="#474747" d="M326.555,289.914c-0.141-0.398-0.23-0.988-0.27-1.77c-0.492,0.641-1.119,1.135-1.881,1.482
			s-1.568,0.521-2.42,0.521c-1.219,0-2.205-0.34-2.959-1.02s-1.131-1.539-1.131-2.578c0-1.234,0.514-2.211,1.541-2.93
			s2.459-1.078,4.295-1.078h2.543v-1.441c0-0.906-0.279-1.619-0.838-2.139s-1.373-0.779-2.443-0.779c-0.977,0-1.785,0.25-2.426,0.75
			s-0.961,1.102-0.961,1.805l-1.406-0.012c0-1.008,0.469-1.881,1.406-2.619s2.09-1.107,3.457-1.107c1.414,0,2.529,0.354,3.346,1.061
			s1.236,1.693,1.26,2.959v6c0,1.227,0.129,2.145,0.387,2.754v0.141H326.555z M322.148,288.906c0.938,0,1.775-0.227,2.514-0.68
			s1.275-1.059,1.611-1.816v-2.789h-2.508c-1.398,0.016-2.492,0.271-3.281,0.768s-1.184,1.178-1.184,2.045
			c0,0.711,0.264,1.301,0.791,1.77S321.305,288.906,322.148,288.906z"/>
		<path fill="#474747" d="M339,286.691c0-0.695-0.279-1.254-0.838-1.676s-1.4-0.752-2.525-0.99s-1.998-0.512-2.619-0.82
			s-1.082-0.686-1.383-1.131s-0.451-0.984-0.451-1.617c0-1,0.418-1.826,1.254-2.479s1.906-0.979,3.211-0.979
			c1.414,0,2.549,0.35,3.404,1.049s1.283,1.611,1.283,2.736h-1.406c0-0.742-0.311-1.359-0.932-1.852s-1.404-0.738-2.35-0.738
			c-0.922,0-1.662,0.205-2.221,0.615s-0.838,0.943-0.838,1.6c0,0.633,0.232,1.123,0.697,1.471s1.313,0.666,2.543,0.955
			s2.152,0.598,2.766,0.926s1.068,0.723,1.365,1.184s0.445,1.02,0.445,1.676c0,1.07-0.432,1.926-1.295,2.566
			s-1.99,0.961-3.381,0.961c-1.477,0-2.674-0.357-3.592-1.072s-1.377-1.619-1.377-2.713h1.406c0.055,0.82,0.4,1.459,1.037,1.916
			s1.479,0.686,2.525,0.686c0.977,0,1.766-0.215,2.367-0.645S339,287.348,339,286.691z"/>
		<path fill="#474747" d="M343.477,273.572c0-0.265,0.086-0.488,0.258-0.67c0.172-0.183,0.406-0.273,0.703-0.273
			s0.533,0.091,0.709,0.273c0.176,0.182,0.264,0.405,0.264,0.67c0,0.264-0.088,0.484-0.264,0.663s-0.412,0.269-0.709,0.269
			s-0.531-0.09-0.703-0.269S343.477,273.836,343.477,273.572z M345.129,289.914h-1.406v-12.68h1.406V289.914z"/>
		<path fill="#474747" d="M356.531,286.691c0-0.695-0.279-1.254-0.838-1.676s-1.4-0.752-2.525-0.99s-1.998-0.512-2.619-0.82
			s-1.082-0.686-1.383-1.131s-0.451-0.984-0.451-1.617c0-1,0.418-1.826,1.254-2.479S351.875,277,353.18,277
			c1.414,0,2.549,0.35,3.404,1.049s1.283,1.611,1.283,2.736h-1.406c0-0.742-0.311-1.359-0.932-1.852s-1.404-0.738-2.35-0.738
			c-0.922,0-1.662,0.205-2.221,0.615s-0.838,0.943-0.838,1.6c0,0.633,0.232,1.123,0.697,1.471s1.313,0.666,2.543,0.955
			s2.152,0.598,2.766,0.926s1.068,0.723,1.365,1.184s0.445,1.02,0.445,1.676c0,1.07-0.432,1.926-1.295,2.566
			s-1.99,0.961-3.381,0.961c-1.477,0-2.674-0.357-3.592-1.072s-1.377-1.619-1.377-2.713h1.406c0.055,0.82,0.4,1.459,1.037,1.916
			s1.479,0.686,2.525,0.686c0.977,0,1.766-0.215,2.367-0.645S356.531,287.348,356.531,286.691z"/>
		<path fill="#474747" d="M360.961,289.07c0-0.273,0.088-0.506,0.264-0.697s0.42-0.287,0.732-0.287s0.559,0.096,0.738,0.287
			s0.27,0.424,0.27,0.697s-0.09,0.498-0.27,0.674s-0.426,0.264-0.738,0.264s-0.557-0.088-0.732-0.264
			S360.961,289.344,360.961,289.07z"/>
	</g>
</g>
</svg>
