<?xml version="1.0" encoding="utf-8"?>
<!-- Generator: Adobe Illustrator 16.0.0, SVG Export Plug-In . SVG Version: 6.00 Build 0)  -->
<!DOCTYPE svg PUBLIC "-//W3C//DTD SVG 1.1//EN" "http://www.w3.org/Graphics/SVG/1.1/DTD/svg11.dtd">
<svg version="1.1" id="Layer_1" xmlns="http://www.w3.org/2000/svg" xmlns:xlink="http://www.w3.org/1999/xlink" x="0px" y="0px"
	 width="128px" height="128px" viewBox="0 0 128 128" enable-background="new 0 0 128 128" xml:space="preserve">
<path fill="#DDE0E0" d="M111,25c3.3,0,6,2.7,6,6v66c0,3.3-2.7,6-6,6H17c-3.3,0-6-2.7-6-6V31c0-3.3,2.7-6,6-6H111 M111,21H17
	c-5.5,0-10,4.5-10,10v66c0,5.5,4.5,10,10,10h94c5.5,0,10-4.5,10-10V31C121,25.5,116.5,21,111,21L111,21z"/>
<path fill="#DDE0E0" d="M111.5,44H17c-0.6,0-1-0.4-1-1s0.4-1,1-1h94.5c0.6,0,1,0.4,1,1S112.1,44,111.5,44z"/>
<circle fill="#DDE0E0" cx="21.5" cy="33.8" r="3"/>
<circle fill="#DDE0E0" cx="30.5" cy="33.8" r="3"/>
<circle fill="#DDE0E0" cx="39.5" cy="33.8" r="3"/>
<path fill="#DDE0E0" d="M113.353,95.504l-10.781-10.781c-0.328,0.451-0.697,0.861-1.025,1.271l10.658,10.658
	c0.492,0.49,0.492,1.27,0,1.721c-0.246,0.246-0.533,0.369-0.86,0.369c-0.328,0-0.656-0.123-0.861-0.369L99.824,87.715
	c-0.409,0.369-0.819,0.697-1.271,1.025l10.781,10.781c0.573,0.572,1.312,0.859,2.049,0.859c0.738,0,1.477-0.285,2.05-0.859
	C114.459,98.455,114.459,96.652,113.353,95.504z"/>
<path fill="#DDE0E0" d="M105.769,75.336c0-0.123,0-0.287,0-0.41c0-0.164,0-0.328-0.042-0.451c0-0.205-0.04-0.41-0.081-0.615
	c0-0.082,0-0.164-0.041-0.205l0,0c-0.328-2.418-1.189-4.837-2.583-6.928l0,0c-0.205-0.287-0.369-0.574-0.614-0.82
	c0,0,0,0-0.042-0.041c-0.451-0.573-0.901-1.105-1.435-1.639c-0.205-0.205-0.41-0.369-0.615-0.574
	c-0.041-0.041-0.082-0.082-0.123-0.123c-0.163-0.123-0.287-0.246-0.45-0.369c-0.123-0.123-0.287-0.246-0.41-0.328c0,0,0,0-0.041,0
	l0,0c-2.746-2.131-6.231-3.402-9.962-3.402c-9.019,0-16.356,7.337-16.356,16.356s7.338,16.356,16.356,16.356
	s16.48-7.379,16.48-16.438C105.81,75.581,105.81,75.459,105.769,75.336z M89.453,90.461c-8.116,0-14.716-6.6-14.716-14.716
	s6.6-14.716,14.716-14.716c3.402,0,6.559,1.189,9.06,3.116l0,0c0.041,0.041,0.041,0.041,0.082,0.082
	c1.394,1.107,2.623,2.5,3.525,4.059l0,0c0.615,1.024,1.065,2.09,1.394,3.197l0,0c0.533,1.762,0.738,3.566,0.573,5.369l0,0
	C103.555,84.436,97.201,90.461,89.453,90.461z"/>
<path fill="#DDE0E0" d="M100.48,68.981L100.48,68.981c0-0.041-0.041-0.041-0.041-0.082c-0.123-0.164-0.205-0.328-0.328-0.491
	c-0.041-0.041-0.082-0.082-0.123-0.164c-0.123-0.205-0.287-0.369-0.41-0.574l-0.041-0.041c-0.164-0.205-0.328-0.369-0.492-0.574l0,0
	c-2.377-2.624-5.82-4.304-9.633-4.304c-7.133,0-12.953,5.78-12.953,12.954c0,7.173,5.779,12.954,12.953,12.954
	c6.764,0,12.339-5.207,12.913-11.848l0,0V76.77c0-0.123,0.041-0.246,0.041-0.327l0,0C102.489,73.859,101.874,71.236,100.48,68.981z
	 M89.453,87.838c-6.682,0-12.133-5.451-12.133-12.134c0-6.682,5.451-12.134,12.133-12.134c3.771,0,7.174,1.722,9.388,4.469
	l0.041,0.041c0.287,0.369,0.574,0.778,0.861,1.188c1.435,2.296,2.05,4.96,1.803,7.542l0,0C100.973,83,95.767,87.838,89.453,87.838z"
	/>
</svg>
