<?xml version="1.0" encoding="utf-8"?>
<!-- Generator: Adobe Illustrator 16.0.0, SVG Export Plug-In . SVG Version: 6.00 Build 0)  -->
<!DOCTYPE svg PUBLIC "-//W3C//DTD SVG 1.1//EN" "http://www.w3.org/Graphics/SVG/1.1/DTD/svg11.dtd">
<svg version="1.1" id="Layer_1" xmlns="http://www.w3.org/2000/svg" xmlns:xlink="http://www.w3.org/1999/xlink" x="0px" y="0px"
	 width="50px" height="50px" viewBox="3.346 3.346 50 50" enable-background="new 3.346 3.346 50 50" xml:space="preserve">
<g>
	<path fill="#9B9B9B" d="M29.316,28.455c0.184-0.062,0.368-0.115,0.553-0.171c-0.352-0.795-0.735-1.593-1.136-2.383
		c-7.22,2.163-14.149,2.008-14.396,1.997c-0.006,0.151-0.013,0.297-0.013,0.448c0,3.603,1.359,6.887,3.593,9.371
		c-0.001-0.003-0.005-0.007-0.005-0.007S21.749,30.903,29.316,28.455z"/>
	<path fill="#9B9B9B" d="M27.569,23.744c-2.426-4.313-5.02-7.832-5.206-8.081c-3.911,1.847-6.83,5.45-7.74,9.792
		C14.992,25.461,20.835,25.534,27.569,23.744z"/>
	<path fill="#9B9B9B" d="M37.607,17.823c-2.47-2.177-5.712-3.498-9.259-3.498c-1.14,0-2.246,0.137-3.308,0.393
		c0.211,0.282,2.848,3.778,5.243,8.183C35.576,20.915,37.574,17.874,37.607,17.823z"/>
	<path fill="#9B9B9B" d="M24.989,14.731c-0.018,0.002-0.031,0.004-0.047,0.013c0.025-0.009,0.043-0.013,0.043-0.013H24.989z"/>
	<path fill="#9B9B9B" d="M19.726,39.401l0.002-0.006c-0.102-0.082-0.212-0.153-0.316-0.241
		C19.599,39.306,19.726,39.401,19.726,39.401z"/>
	<path fill="#9B9B9B" d="M31.362,24.989c0.326,0.67,0.642,1.351,0.935,2.033c0.102,0.248,0.204,0.486,0.302,0.727
		c4.817-0.605,9.563,0.415,9.768,0.456c-0.032-3.325-1.222-6.374-3.19-8.765C39.148,19.476,36.9,22.727,31.362,24.989z"/>
	<path fill="#9B9B9B" d="M30.732,30.64c-8.276,2.886-10.977,8.7-11.004,8.755c2.38,1.857,5.366,2.973,8.618,2.973
		c1.94,0,3.792-0.395,5.475-1.111c-0.209-1.226-1.022-5.52-2.998-10.648C30.794,30.621,30.763,30.631,30.732,30.64z"/>
	<path fill="#9B9B9B" d="M28.346,5.722c-12.497,0-22.625,10.132-22.625,22.625c0,12.495,10.127,22.624,22.625,22.624
		c12.495,0,22.624-10.129,22.624-22.624C50.97,15.854,40.841,5.722,28.346,5.722z M43.474,34.739
		c-0.41,0.975-0.92,1.914-1.515,2.789c-0.586,0.87-1.261,1.687-2.004,2.43c-0.744,0.742-1.56,1.416-2.43,2.006
		c-0.877,0.593-1.817,1.101-2.788,1.514c-0.993,0.418-2.032,0.74-3.086,0.956c-1.081,0.223-2.194,0.336-3.307,0.336
		c-1.114,0-2.227-0.113-3.309-0.336c-1.054-0.216-2.094-0.538-3.083-0.956c-0.975-0.413-1.914-0.923-2.791-1.514
		c-0.869-0.59-1.686-1.264-2.43-2.006c-0.743-0.743-1.417-1.558-2.005-2.43c-0.594-0.875-1.101-1.815-1.514-2.789
		c-0.42-0.992-0.741-2.029-0.958-3.087c-0.218-1.081-0.331-2.191-0.331-3.305c0-1.113,0.112-2.225,0.331-3.306
		c0.217-1.057,0.539-2.096,0.958-3.086c0.413-0.975,0.922-1.915,1.514-2.792c0.587-0.87,1.262-1.685,2.005-2.429
		c0.744-0.743,1.559-1.415,2.43-2.005c0.877-0.593,1.817-1.104,2.791-1.515c0.989-0.419,2.03-0.743,3.083-0.956
		c1.082-0.221,2.194-0.334,3.309-0.334c1.112,0,2.226,0.113,3.307,0.334c1.054,0.213,2.093,0.537,3.086,0.956
		c0.972,0.411,1.911,0.923,2.788,1.515c0.868,0.59,1.686,1.262,2.43,2.005c0.743,0.744,1.418,1.558,2.004,2.429
		c0.595,0.876,1.104,1.818,1.515,2.792c0.42,0.99,0.742,2.029,0.957,3.086c0.223,1.081,0.333,2.193,0.333,3.306
		c0,1.113-0.11,2.224-0.333,3.305C44.217,32.71,43.895,33.747,43.474,34.739z"/>
	<path fill="#9B9B9B" d="M33.453,29.961c1.839,5.056,2.584,9.172,2.729,10.017c3.146-2.125,5.385-5.498,6.008-9.406
		C41.902,30.479,37.979,29.236,33.453,29.961z"/>
</g>
</svg>
