<?xml version="1.0" encoding="utf-8"?>
<!-- Generator: Adobe Illustrator 16.0.0, SVG Export Plug-In . SVG Version: 6.00 Build 0)  -->
<!DOCTYPE svg PUBLIC "-//W3C//DTD SVG 1.1//EN" "http://www.w3.org/Graphics/SVG/1.1/DTD/svg11.dtd">
<svg version="1.1" id="Layer_1" xmlns="http://www.w3.org/2000/svg" xmlns:xlink="http://www.w3.org/1999/xlink" x="0px" y="0px"
	 width="50px" height="50px" viewBox="8.5 8.5 50 50" enable-background="new 8.5 8.5 50 50" xml:space="preserve">
<path fill="#9B9B9B" d="M30.824,46.24h5.057V33.999h3.375l0.446-4.218h-3.821l0.006-2.112c0-1.1,0.105-1.689,1.684-1.689h2.109
	V21.76h-3.375c-4.054,0-5.48,2.047-5.48,5.488v2.532h-2.527v4.219h2.527L30.824,46.24L30.824,46.24z M34,56.5
	c-12.426,0-22.5-10.074-22.5-22.5c0-12.427,10.074-22.5,22.5-22.5S56.5,21.573,56.5,34C56.5,46.426,46.426,56.5,34,56.5z"/>
</svg>
