<?xml version="1.0" encoding="utf-8"?>
<!-- Generator: Adobe Illustrator 16.0.0, SVG Export Plug-In . SVG Version: 6.00 Build 0)  -->
<!DOCTYPE svg PUBLIC "-//W3C//DTD SVG 1.1//EN" "http://www.w3.org/Graphics/SVG/1.1/DTD/svg11.dtd">
<svg version="1.1" id="Layer_1" xmlns="http://www.w3.org/2000/svg" xmlns:xlink="http://www.w3.org/1999/xlink" x="0px" y="0px"
	 width="128px" height="128px" viewBox="0 0 128 128" enable-background="new 0 0 128 128" xml:space="preserve">
<path fill="#DDE0E0" d="M111,25c3.3,0,6,2.7,6,6v66c0,3.3-2.7,6-6,6H17c-3.3,0-6-2.7-6-6V31c0-3.3,2.7-6,6-6H111 M111,21H17
	c-5.5,0-10,4.5-10,10v66c0,5.5,4.5,10,10,10h94c5.5,0,10-4.5,10-10V31C121,25.5,116.5,21,111,21L111,21z"/>
<path fill="#DDE0E0" d="M111.5,44H17c-0.6,0-1-0.4-1-1s0.4-1,1-1h94.5c0.6,0,1,0.4,1,1S112.1,44,111.5,44z"/>
<circle fill="#DDE0E0" cx="21.5" cy="33.8" r="3"/>
<circle fill="#DDE0E0" cx="30.5" cy="33.8" r="3"/>
<circle fill="#DDE0E0" cx="39.5" cy="33.8" r="3"/>
<circle fill="#DDE0E0" cx="99.062" cy="94.92" r="1.478"/>
<path fill="#DDE0E0" d="M110.395,51.065H86.25c-2.711,0-4.928,2.218-4.928,4.928v39.913c0,2.711,2.217,4.928,4.928,4.928h24.145
	c2.711,0,4.928-2.217,4.928-4.928V55.993C115.322,53.283,113.105,51.065,110.395,51.065z M113.352,95.905
	c0,1.626-1.331,2.957-2.957,2.957H86.25c-1.626,0-2.957-1.331-2.957-2.957V55.993c0-1.626,1.331-2.957,2.957-2.957h24.145
	c1.626,0,2.957,1.331,2.957,2.957V95.905z"/>
<path fill="#DDE0E0" d="M86.25,55.993v35.478h24.145V55.993H86.25z M109.409,90.485H87.235V56.978h22.174V90.485z"/>
</svg>
