<?xml version="1.0" encoding="utf-8"?>
<!-- Generator: Adobe Illustrator 16.0.0, SVG Export Plug-In . SVG Version: 6.00 Build 0)  -->
<!DOCTYPE svg PUBLIC "-//W3C//DTD SVG 1.1//EN" "http://www.w3.org/Graphics/SVG/1.1/DTD/svg11.dtd">
<svg version="1.1" id="Layer_1" xmlns="http://www.w3.org/2000/svg" xmlns:xlink="http://www.w3.org/1999/xlink" x="0px" y="0px"
	 width="136px" height="110px" viewBox="0 0 136 110" enable-background="new 0 0 136 110" xml:space="preserve">
<path fill="#3E466F" d="M112.677,59.513c-1.154-0.282-1.826-1.062-2.031-2.368c4.103-2.393,6.416-7.377,6.416-13.979
	c0-8.569-6.052-15.539-13.491-15.539c-7.438,0-13.49,6.97-13.49,15.539c0,6.602,2.315,11.586,6.416,13.979
	c-0.205,1.307-0.876,2.086-2.029,2.368c-6.08,1.491-9.73,3.383-11.93,6.226c-2.636-0.596-4.42-1.806-4.68-5.043
	c5.779-3.048,9.057-9.883,9.057-19.061c0-11.479-8.054-20.821-17.952-20.821c-9.897,0-17.952,9.341-17.952,20.821
	c0,9.178,3.276,16.013,9.056,19.061c-0.26,3.234-2.396,4.665-4.678,5.043c-2.198-2.843-5.848-4.731-11.93-6.226
	c-1.154-0.282-1.825-1.062-2.029-2.368c4.101-2.391,6.416-7.375,6.416-13.979c0-8.569-6.052-15.539-13.49-15.539
	s-13.491,6.97-13.491,15.539c0,6.602,2.315,11.585,6.417,13.979c-0.206,1.307-0.875,2.086-2.028,2.368
	c-10.935,2.684-14.626,6.805-14.626,16.333c0,1.315,1.067,2.382,2.381,2.382h24.896c-1.045,3.019-1.239,6.245-1.239,9.205
	c0,1.314,1.067,2.382,2.382,2.382h59.833c1.313,0,2.379-1.068,2.379-2.382c0-2.96-0.193-6.187-1.238-9.205h24.896
	c1.316,0,2.382-1.066,2.382-2.382C127.299,66.317,123.609,62.196,112.677,59.513 M15.464,73.461c0.371-4.684,2.317-7.21,10.918-9.32
	c2.926-0.718,5.96-3.35,5.71-8.576c-0.045-0.943-0.643-1.77-1.523-2.11c-4.465-1.72-4.946-7.768-4.946-10.289
	c0-5.94,3.916-10.774,8.729-10.774c4.812,0,8.729,4.834,8.729,10.774c0,2.521-0.481,8.57-4.945,10.289
	c-0.881,0.34-1.477,1.167-1.523,2.11c-0.253,5.227,2.783,7.858,5.71,8.576c3.671,0.901,6.226,1.918,7.906,3.178
	c-4.425,1.616-7.483,3.562-9.592,6.046c-0.026,0.031-0.053,0.065-0.079,0.097H15.464L15.464,73.461z M41.484,85.051
	c0.169-3.185,0.744-5.689,2.123-7.742c0.053-0.069,0.103-0.14,0.148-0.215c2.2-3.099,6.324-5.156,13.81-6.992
	c1.811-0.444,7.684-2.553,7.274-11.044c-0.045-0.943-0.642-1.771-1.523-2.11c-4.793-1.847-7.545-7.428-7.545-15.312
	c0-8.853,5.917-16.055,13.19-16.055c7.272,0,13.189,7.202,13.189,16.055c0,7.885-2.749,13.466-7.544,15.312
	c-0.881,0.34-1.479,1.167-1.522,2.11c-0.409,8.491,5.463,10.6,7.273,11.044c12.542,3.078,15.647,6.774,16.081,14.949H41.484z
	 M97.367,73.461c-0.025-0.03-0.052-0.063-0.078-0.096c-2.11-2.484-5.169-4.429-9.594-6.044c1.682-1.261,4.237-2.279,7.907-3.181
	c2.926-0.718,5.962-3.348,5.709-8.576c-0.045-0.941-0.644-1.769-1.522-2.108c-4.466-1.719-4.946-7.767-4.946-10.289
	c0-5.94,3.916-10.774,8.729-10.774c4.812,0,8.729,4.833,8.729,10.774c0,2.521-0.483,8.568-4.947,10.289
	c-0.88,0.34-1.478,1.167-1.521,2.108c-0.253,5.229,2.783,7.858,5.709,8.576c8.601,2.112,10.549,4.637,10.918,9.323H97.367V73.461z"
	/>
</svg>
