<?xml version="1.0" encoding="utf-8"?>
<!-- Generator: Adobe Illustrator 16.0.0, SVG Export Plug-In . SVG Version: 6.00 Build 0)  -->
<!DOCTYPE svg PUBLIC "-//W3C//DTD SVG 1.1//EN" "http://www.w3.org/Graphics/SVG/1.1/DTD/svg11.dtd">
<svg version="1.1" id="Layer_1" xmlns="http://www.w3.org/2000/svg" xmlns:xlink="http://www.w3.org/1999/xlink" x="0px" y="0px"
	 width="128px" height="128px" viewBox="0 0 128 128" enable-background="new 0 0 128 128" xml:space="preserve">
<path fill="#DDE0E0" d="M63.5,11.5c3,0,6.1,0.3,9.1,0.8v8.2v3l2.9,0.8c2.9,0.9,5.7,2,8.3,3.4l2.601,1.4l2.1-2.1l5.8-5.8
	c5,3.5,9.4,7.9,12.9,12.9l-5.8,5.8L99.3,42l1.4,2.6c1.399,2.6,2.6,5.4,3.399,8.3l0.801,2.9h3h8.199c0.5,3,0.801,6.1,0.801,9.101
	c0,3-0.301,6.1-0.801,9.1H108h-3l-0.8,2.9c-0.9,2.899-2,5.699-3.4,8.3L99.4,87.8l2.1,2.101l5.8,5.8
	c-3.5,5-7.899,9.399-12.899,12.899l-5.801-5.8l-2.1-2.1l-2.6,1.399c-2.601,1.4-5.4,2.601-8.301,3.4l-2.899,0.8v3v8.2
	c-3,0.5-6.101,0.8-9.1,0.8c-3,0-6.1-0.3-9.1-0.8v-8.2v-3l-2.9-0.8c-2.9-0.9-5.7-2-8.3-3.4l-2.6-1.399l-2.1,2.1l-5.8,5.8
	c-5-3.5-9.4-7.899-12.9-12.899l5.8-5.8l2.1-2.101l-1.4-2.6C25,82.6,23.8,79.8,23,76.9L22.2,74h-3H11c-0.7-2.9-1-6-1-9
	s0.3-6.1,0.8-9.1H19h3l0.8-2.9c0.9-2.9,2-5.7,3.4-8.3l1.4-2.6L25.5,40l-5.8-5.8c3.5-5,7.9-9.4,12.9-12.9l5.8,5.8l2.1,2.1l2.6-1.4
	c2.6-1.4,5.4-2.6,8.3-3.4l2.9-0.8v-3v-8.2C57.4,11.8,60.5,11.5,63.5,11.5 M63.5,7.5C59,7.5,54.6,8,50.4,9v11.4
	c-3.2,0.9-6.2,2.2-9.1,3.8l-8.1-8.1c-7.5,4.7-13.9,11-18.6,18.6l8.1,8.1c-1.6,2.9-2.8,5.9-3.8,9.1H7.5C6.5,56.1,6,60.5,6,65
	s0.5,8.9,1.5,13.1H19c0.9,3.2,2.2,6.2,3.8,9.101l-8.1,8.1c4.7,7.5,11,13.9,18.6,18.601l8.1-8.101c2.9,1.601,5.9,2.8,9.1,3.8V121
	c4.2,1,8.6,1.5,13.1,1.5c4.5,0,8.9-0.5,13.1-1.5v-11.4c3.2-0.899,6.2-2.199,9.1-3.8L93.9,113.9c7.5-4.7,13.899-11,18.6-18.601
	l-8.1-8.1c1.6-2.9,2.8-5.9,3.8-9.101H119.6c1-4.199,1.5-8.6,1.5-13.1s-0.5-8.9-1.5-13.1H108c-0.9-3.2-2.2-6.2-3.8-9.1l8.1-8.1
	c-4.7-7.5-11-13.9-18.6-18.6L85.6,24.2c-2.899-1.6-5.899-2.8-9.1-3.8V9C72.4,8,68,7.5,63.5,7.5L63.5,7.5z"/>
<path fill="#DDE0E0" d="M63,39c14.8,0,26.8,12,26.8,26.8S77.8,92.5,63,92.5s-26.8-12-26.8-26.8C36.2,50.9,48.2,39,63,39 M63,37
	c-15.9,0-28.8,12.9-28.8,28.8c0,15.9,12.9,28.7,28.8,28.7c15.9,0,28.8-12.9,28.8-28.8C91.8,49.8,78.9,37,63,37L63,37z"/>
</svg>
