<?xml version="1.0" encoding="utf-8"?>
<!-- Generator: Adobe Illustrator 16.0.0, SVG Export Plug-In . SVG Version: 6.00 Build 0)  -->
<!DOCTYPE svg PUBLIC "-//W3C//DTD SVG 1.1//EN" "http://www.w3.org/Graphics/SVG/1.1/DTD/svg11.dtd">
<svg version="1.1" id="Layer_1" xmlns="http://www.w3.org/2000/svg" xmlns:xlink="http://www.w3.org/1999/xlink" x="0px" y="0px"
	 width="50px" height="50px" viewBox="8.5 8.5 50 50" enable-background="new 8.5 8.5 50 50" xml:space="preserve">
<path fill="#9B9B9B" d="M36.788,24.256c-2.067,0.752-3.373,2.691-3.224,4.813l0.05,0.818l-0.827-0.1
	c-3.009-0.385-5.638-1.688-7.869-3.878l-1.091-1.086l-0.281,0.803c-0.595,1.788-0.215,3.677,1.025,4.946
	c0.661,0.702,0.512,0.803-0.628,0.385c-0.397-0.134-0.745-0.233-0.777-0.185c-0.115,0.118,0.28,1.639,0.595,2.24
	c0.43,0.836,1.306,1.654,2.265,2.14l0.811,0.385l-0.959,0.017c-0.925,0-0.958,0.016-0.859,0.368c0.331,1.086,1.637,2.24,3.092,2.741
	l1.024,0.351l-0.893,0.535c-1.321,0.77-2.876,1.202-4.431,1.235c-0.744,0.017-1.355,0.084-1.355,0.134
	c0,0.168,2.017,1.104,3.19,1.472c3.521,1.087,7.704,0.617,10.844-1.236c2.232-1.321,4.464-3.945,5.505-6.486
	c0.563-1.354,1.125-3.828,1.125-5.014c0-0.769,0.05-0.869,0.976-1.788c0.546-0.535,1.057-1.119,1.157-1.287
	c0.165-0.317,0.148-0.317-0.694-0.033c-1.405,0.501-1.604,0.435-0.91-0.317c0.514-0.535,1.125-1.505,1.125-1.788
	c0-0.05-0.248,0.032-0.528,0.184c-0.298,0.167-0.959,0.418-1.456,0.567l-0.893,0.285l-0.809-0.553
	c-0.447-0.3-1.074-0.635-1.405-0.734C38.838,23.955,37.548,23.988,36.788,24.256z M33.5,57.168
	c-13.07,0-23.668-10.597-23.668-23.668S20.43,9.832,33.5,9.832c13.071,0,23.668,10.597,23.668,23.668S46.571,57.168,33.5,57.168z"/>
</svg>
