<?xml version="1.0" encoding="utf-8"?>
<!-- Generator: Adobe Illustrator 16.0.0, SVG Export Plug-In . SVG Version: 6.00 Build 0)  -->
<!DOCTYPE svg PUBLIC "-//W3C//DTD SVG 1.1//EN" "http://www.w3.org/Graphics/SVG/1.1/DTD/svg11.dtd">
<svg version="1.1" id="Layer_1" xmlns="http://www.w3.org/2000/svg" xmlns:xlink="http://www.w3.org/1999/xlink" x="0px" y="0px"
	 width="128px" height="128px" viewBox="0 0 128 128" enable-background="new 0 0 128 128" xml:space="preserve">
<path fill="#DDE0E0" d="M100,99.9v7.899c0,3.3-2.2,6.2-5.5,6.2h-63c-3.3,0-6.5-2.9-6.5-6.2v-89c0-3.3,3.2-5.8,6.5-5.8h63
	c3.3,0,5.5,2.5,5.5,5.8v48.9l4-4V18.8c0-5.5-4-9.8-9.5-9.8h-63C26,9,21,13.3,21,18.8v89c0,5.5,5,10.2,10.5,10.2h63
	c5.5,0,9.5-4.7,9.5-10.2V95.9L100,99.9z"/>
<path fill="#DDE0E0" d="M120.7,70.2c0-0.5-0.2-0.9-0.601-1.2l0,0l-5.199-5.2l0,0c-0.301-0.3-0.801-0.5-1.301-0.6l-4.899-0.3
	c-0.601,0-1.101,0.2-1.5,0.5l0,0L82.4,88.2c-0.801,0.8-0.801,2,0,2.8c0.399,0.4,0.899,0.6,1.399,0.6s1-0.199,1.4-0.6l24.2-24.2
	l3.3,0.2l4.1,4.1L117,74.4L92.8,98.6c-0.8,0.801-0.8,2,0,2.801c0.4,0.399,0.9,0.6,1.4,0.6s1-0.2,1.399-0.6L120.4,76.6
	c0.399-0.399,0.6-1,0.6-1.5l0,0L120.7,70.2z"/>
<path fill="#DDE0E0" d="M89.4,95.6L113.3,71.7c0.4-0.4,0.4-1,0-1.4c-0.399-0.399-1-0.399-1.399,0L88,94.2c-0.4,0.399-0.4,1,0,1.399
	c0.2,0.2,0.5,0.301,0.7,0.301S89.2,95.8,89.4,95.6z"/>
<path fill="#DDE0E0" d="M89.8,102l-7,1.6l-2.7-2.699l1.7-7c0.3-1.101-0.399-2.2-1.5-2.4c-1.1-0.3-2.2,0.4-2.399,1.5l-3.2,13.7
	c-0.3,1.1,0.399,2.2,1.5,2.399c0.2,0,0.3,0.101,0.5,0.101s0.3,0,0.5-0.101l0,0l13.7-3.199c1.1-0.301,1.699-1.301,1.5-2.4
	C92,102.4,90.9,101.8,89.8,102z"/>
</svg>
