<?xml version="1.0" encoding="utf-8"?>
<!-- Generator: Adobe Illustrator 16.0.0, SVG Export Plug-In . SVG Version: 6.00 Build 0)  -->
<!DOCTYPE svg PUBLIC "-//W3C//DTD SVG 1.1//EN" "http://www.w3.org/Graphics/SVG/1.1/DTD/svg11.dtd">
<svg version="1.1" id="Capa_1" xmlns="http://www.w3.org/2000/svg" xmlns:xlink="http://www.w3.org/1999/xlink" x="0px" y="0px"
	 width="128px" height="128px" viewBox="0 0 128 128" enable-background="new 0 0 128 128" xml:space="preserve">
<g>
	<g>
		<g>
			<path fill="#3B4370" d="M107.708,36.129c1.301,0,2.524,0.507,3.444,1.427c1.898,1.899,1.898,4.99,0,6.89l-44.41,44.409
				l-0.04,0.04l-0.037,0.041c-0.068,0.076-0.13,0.155-0.203,0.252c-0.46,0.443-0.992,0.789-1.606,1.037
				c-0.603,0.253-1.241,0.381-1.897,0.381c-1.298,0-2.517-0.505-3.432-1.42c-0.126-0.126-0.26-0.306-0.416-0.514l-0.042-0.057
				l-0.086-0.116l-0.103-0.102L34.144,63.705c-1.9-1.9-1.9-4.991,0-6.89c0.92-0.92,2.144-1.427,3.445-1.427s2.524,0.507,3.445,1.428
				l20.59,20.552l1.415,1.411l1.413-1.413l39.812-39.811C105.183,36.636,106.406,36.129,107.708,36.129 M107.707,34.129
				c-1.758,0-3.517,0.671-4.858,2.013L63.037,75.952L42.447,55.4c-1.341-1.341-3.1-2.012-4.858-2.012s-3.517,0.671-4.859,2.012
				c-2.684,2.684-2.684,7.034,0,9.719l24.737,24.693c0.201,0.269,0.399,0.541,0.644,0.786c1.339,1.34,3.093,2.007,4.848,2.007
				c0.91,0,1.819-0.18,2.671-0.537c0.836-0.337,1.619-0.842,2.298-1.517c0.088-0.087,0.146-0.191,0.229-0.283l44.41-44.409
				c2.683-2.684,2.683-7.035,0-9.718C111.225,34.8,109.466,34.129,107.707,34.129L107.707,34.129z"/>
		</g>
	</g>
	<path fill="none" stroke="#3B4370" stroke-width="4" stroke-linecap="round" stroke-miterlimit="10" d="M107.964,55.161
		c0.726,3.308,0.817,5.313,0.817,8.839c0,26.334-21.346,47.68-47.681,47.68c-26.332,0-47.679-21.346-47.679-47.68
		c0-26.333,21.347-47.68,47.679-47.68c15.952,0,29.093,6.852,37.748,18.882"/>
</g>
</svg>
