<?xml version="1.0" encoding="utf-8"?>
<!-- Generator: Adobe Illustrator 16.0.0, SVG Export Plug-In . SVG Version: 6.00 Build 0)  -->
<!DOCTYPE svg PUBLIC "-//W3C//DTD SVG 1.1//EN" "http://www.w3.org/Graphics/SVG/1.1/DTD/svg11.dtd">
<svg version="1.1" id="Layer_1" xmlns="http://www.w3.org/2000/svg" xmlns:xlink="http://www.w3.org/1999/xlink" x="0px" y="0px"
	 width="136px" height="110px" viewBox="0 0 136 110" enable-background="new 0 0 136 110" xml:space="preserve">
<g>
	<defs>
		<rect id="SVGID_1_" x="39" y="14" width="60" height="82"/>
	</defs>
	<clipPath id="SVGID_2_">
		<use xlink:href="#SVGID_1_"  overflow="visible"/>
	</clipPath>
</g>
<g>
	<defs>
		<rect id="SVGID_3_" x="34" y="20" width="69.962" height="69.642"/>
	</defs>
	<clipPath id="SVGID_4_">
		<use xlink:href="#SVGID_3_"  overflow="visible"/>
	</clipPath>
	<g opacity="0.5" clip-path="url(#SVGID_4_)" enable-background="new    ">
		<g>
			<defs>
				<rect id="SVGID_5_" x="34" y="20" width="70" height="70"/>
			</defs>
			<clipPath id="SVGID_6_">
				<use xlink:href="#SVGID_5_"  overflow="visible"/>
			</clipPath>
			<g clip-path="url(#SVGID_6_)">
				<defs>
					<rect id="SVGID_7_" x="33.961" y="21.641" width="70" height="70"/>
				</defs>
				<clipPath id="SVGID_8_">
					<use xlink:href="#SVGID_7_"  overflow="visible"/>
				</clipPath>
				<g clip-path="url(#SVGID_8_)">
					<defs>
						<rect id="SVGID_9_" x="34" y="22" width="70" height="70"/>
					</defs>
					<clipPath id="SVGID_10_">
						<use xlink:href="#SVGID_9_"  overflow="visible"/>
					</clipPath>
				</g>
			</g>
		</g>
	</g>
</g>
<g>
	<defs>
		<rect id="SVGID_11_" x="34.261" y="20" width="69.739" height="69.641"/>
	</defs>
	<clipPath id="SVGID_12_">
		<use xlink:href="#SVGID_11_"  overflow="visible"/>
	</clipPath>
	<g opacity="0.5" clip-path="url(#SVGID_12_)" enable-background="new    ">
		<g>
			<defs>
				<rect id="SVGID_13_" x="34" y="20" width="70" height="70"/>
			</defs>
			<clipPath id="SVGID_14_">
				<use xlink:href="#SVGID_13_"  overflow="visible"/>
			</clipPath>
			<g clip-path="url(#SVGID_14_)">
				<defs>
					<rect id="SVGID_15_" x="34.261" y="19.641" width="70" height="70"/>
				</defs>
				<clipPath id="SVGID_16_">
					<use xlink:href="#SVGID_15_"  overflow="visible"/>
				</clipPath>
				<g clip-path="url(#SVGID_16_)">
					<defs>
						<rect id="SVGID_17_" x="34" y="20" width="70" height="70"/>
					</defs>
					<clipPath id="SVGID_18_">
						<use xlink:href="#SVGID_17_"  overflow="visible"/>
					</clipPath>
				</g>
			</g>
		</g>
	</g>
</g>
<g>
	<defs>
		<rect id="SVGID_19_" x="34.287" y="22.211" width="69.713" height="66.511"/>
	</defs>
	<clipPath id="SVGID_20_">
		<use xlink:href="#SVGID_19_"  overflow="visible"/>
	</clipPath>
	<g opacity="0.5" clip-path="url(#SVGID_20_)" enable-background="new    ">
		<g>
			<defs>
				<rect id="SVGID_21_" x="34" y="22" width="70" height="67"/>
			</defs>
			<clipPath id="SVGID_22_">
				<use xlink:href="#SVGID_21_"  overflow="visible"/>
			</clipPath>
			<g clip-path="url(#SVGID_22_)">
				<defs>
					<rect id="SVGID_23_" x="34.287" y="21.722" width="70" height="67"/>
				</defs>
				<clipPath id="SVGID_24_">
					<use xlink:href="#SVGID_23_"  overflow="visible"/>
				</clipPath>
				<g clip-path="url(#SVGID_24_)">
					<defs>
						<rect id="SVGID_25_" x="34" y="22" width="70" height="67"/>
					</defs>
					<clipPath id="SVGID_26_">
						<use xlink:href="#SVGID_25_"  overflow="visible"/>
					</clipPath>
				</g>
			</g>
		</g>
	</g>
</g>
<g>
	<defs>
		<rect id="SVGID_27_" x="22.461" y="28.032" width="92.539" height="54.782"/>
	</defs>
	<clipPath id="SVGID_28_">
		<use xlink:href="#SVGID_27_"  overflow="visible"/>
	</clipPath>
	<g opacity="0.6" clip-path="url(#SVGID_28_)" enable-background="new    ">
		<g>
			<defs>
				<rect id="SVGID_29_" x="22" y="28" width="93" height="55"/>
			</defs>
			<clipPath id="SVGID_30_">
				<use xlink:href="#SVGID_29_"  overflow="visible"/>
			</clipPath>
			<g clip-path="url(#SVGID_30_)">
				<defs>
					<rect id="SVGID_31_" x="22.461" y="27.815" width="93" height="55"/>
				</defs>
				<clipPath id="SVGID_32_">
					<use xlink:href="#SVGID_31_"  overflow="visible"/>
				</clipPath>
				<g clip-path="url(#SVGID_32_)">
					<defs>
						<rect id="SVGID_33_" x="22" y="28" width="93" height="55"/>
					</defs>
					<clipPath id="SVGID_34_">
						<use xlink:href="#SVGID_33_"  overflow="visible"/>
					</clipPath>
				</g>
			</g>
		</g>
	</g>
</g>
<g>
	<defs>
		<rect id="SVGID_35_" x="36" y="21" width="66.494" height="69.851"/>
	</defs>
	<clipPath id="SVGID_36_">
		<use xlink:href="#SVGID_35_"  overflow="visible"/>
	</clipPath>
	<g opacity="0.6" clip-path="url(#SVGID_36_)" enable-background="new    ">
	</g>
</g>
<g>
	<defs>
		<rect id="SVGID_37_" x="35" y="19.925" width="67" height="70"/>
	</defs>
	<clipPath id="SVGID_38_">
		<use xlink:href="#SVGID_37_"  overflow="visible"/>
	</clipPath>
	<g clip-path="url(#SVGID_38_)">
		<defs>
			<rect id="SVGID_39_" x="35" y="20.321" width="67" height="70"/>
		</defs>
		<clipPath id="SVGID_40_">
			<use xlink:href="#SVGID_39_"  overflow="visible"/>
		</clipPath>
		<g clip-path="url(#SVGID_40_)">
			<defs>
				<rect id="SVGID_41_" x="35.364" y="20.47" width="67" height="70"/>
			</defs>
			<clipPath id="SVGID_42_">
				<use xlink:href="#SVGID_41_"  overflow="visible"/>
			</clipPath>
			<path clip-path="url(#SVGID_42_)" fill="#3E466F" d="M35.632,27.996l0.002,0.002c0.039,0.09,0.081,0.129,0.081,0.129l0.026-0.028
				l18.059,17.142V90.47h48.562V23.216H53.801v7.855L42.765,20.597l-0.055,0.056c-0.366-0.133-2.43-0.89-5.303,2.092
				C34.534,25.727,35.483,27.639,35.632,27.996 M85.967,69.995H96.34v14.497H85.967V69.995z M85.967,42.795h2.861h1.496h4.066h1.666
				h0.283V68.8H85.967V42.795z M85.967,29.194h1.656v12.404h-1.656V29.194z M91.529,29.194h1.656v12.404h-1.656V29.194z
				 M96.34,41.599h-0.283h-1.666V29.194h1.949V41.599z M90.324,41.599h-1.496V29.194h1.496V41.599z M84.762,41.599h-1.506V29.194
				h1.506V41.599z M80.395,29.194h1.656v12.404h-1.656V29.194z M59.824,29.194h19.365v12.404h-6.324v1.196h6.324h4.066h1.506V68.8
				v1.195v14.497h-7.98V81.72h-2.41v2.772H59.824V62.224h1.898v-2.392h-1.898V50.96l1.088,1.032
				c0.267-1.322,1.237-2.949,2.466-4.341c1.483-1.683,3.197-2.887,4.502-3.215l-8.056-7.647V29.194z"/>
			<path clip-path="url(#SVGID_42_)" fill="#3E466F" d="M63.536,47.854c-1.698,1.959-2.344,3.644-2.377,4.492
				c-0.01,0.258,0.575,0.586,0.678,0.586h0.006l1.379,0.164l1.028,0.121l4.691,0.559c0-0.002-0.002-0.005-0.002-0.008
				c-0.028-0.349,0.132-0.754,0.439-1.112c0.148-0.174,0.541-0.559,1.029-0.593l-1.34-4.532l-0.289-0.979l-0.359-1.222
				c0.021-0.27-0.289-0.615-0.376-0.615C67.175,44.717,65.3,45.817,63.536,47.854 M67.408,46.154l0.217,0.735l0.289,0.979
				l1.047,3.544c-0.232,0.175-0.401,0.354-0.499,0.47c-0.16,0.187-0.296,0.384-0.405,0.584l-3.663-0.435l-1.028-0.122l-0.877-0.104
				c0.241-0.733,0.843-1.882,1.96-3.17C65.633,47.267,66.728,46.505,67.408,46.154"/>
			<path clip-path="url(#SVGID_42_)" fill="#3E466F" d="M69.727,53.796c0.006,0.008,0.006,0.021,0.014,0.028l1.086,0.902
				c0.07,0.058,0.326,0.141,0.57,0.141c0.164,0,0.322-0.037,0.414-0.143c0.229-0.262-0.039-0.852-0.156-0.948l-1.086-0.902
				c-0.025-0.021-0.059-0.031-0.1-0.031c-0.006,0-0.016,0.004-0.021,0.005c-0.139,0.012-0.336,0.133-0.504,0.326
				C69.729,53.419,69.643,53.682,69.727,53.796"/>
			<polygon clip-path="url(#SVGID_42_)" fill="#3E466F" points="74.008,63.502 76.418,63.502 76.418,59.683 72.336,59.683 
				72.336,62.074 74.008,62.074 			"/>
			<rect x="65.107" y="59.683" clip-path="url(#SVGID_42_)" fill="#3E466F" width="3.479" height="2.392"/>
			<rect x="74.008" y="67.223" clip-path="url(#SVGID_42_)" fill="#3E466F" width="2.41" height="3.453"/>
			<rect x="74.008" y="74.396" clip-path="url(#SVGID_42_)" fill="#3E466F" width="2.41" height="3.452"/>
		</g>
	</g>
</g>
</svg>
