<?xml version="1.0" encoding="utf-8"?>
<!-- Generator: Adobe Illustrator 16.0.0, SVG Export Plug-In . SVG Version: 6.00 Build 0)  -->
<!DOCTYPE svg PUBLIC "-//W3C//DTD SVG 1.1//EN" "http://www.w3.org/Graphics/SVG/1.1/DTD/svg11.dtd">
<svg version="1.1" id="Layer_1" xmlns="http://www.w3.org/2000/svg" xmlns:xlink="http://www.w3.org/1999/xlink" x="0px" y="0px"
	 width="136px" height="110px" viewBox="0 0 136 110" enable-background="new 0 0 136 110" xml:space="preserve">
<path fill="#3E466F" d="M105.036,39.646l-5.393-7.043l1.151-8.794c0.132-1.007-0.428-1.977-1.367-2.365l-8.198-3.393l-3.394-8.194
	c-0.388-0.938-1.357-1.498-2.366-1.367l-8.798,1.152L69.626,4.25c-0.806-0.616-1.924-0.616-2.729,0l-7.046,5.391l-8.798-1.152
	c-1.006-0.131-1.978,0.429-2.366,1.367l-3.394,8.194l-8.198,3.392c-0.938,0.389-1.499,1.358-1.367,2.366l1.151,8.795l-5.392,7.042
	c-0.617,0.805-0.617,1.923,0,2.729l5.392,7.042l-1.151,8.794c-0.132,1.007,0.429,1.977,1.367,2.364l8.198,3.394l3.394,8.194
	c0.301,0.727,0.951,1.225,1.697,1.353v29.811c0,0.818,0.445,1.572,1.163,1.967c0.717,0.395,1.593,0.366,2.285-0.071l14.431-9.149
	l14.43,9.149c0.367,0.231,0.785,0.35,1.204,0.35c0.372,0,0.744-0.093,1.081-0.278c0.718-0.395,1.163-1.148,1.163-1.967V73.516
	c0.746-0.129,1.396-0.627,1.696-1.353l3.394-8.194l8.199-3.392c0.938-0.39,1.498-1.359,1.367-2.366l-1.152-8.794l5.393-7.042
	C105.652,41.569,105.652,40.45,105.036,39.646 M69.465,91.52c-0.735-0.466-1.673-0.466-2.407,0l-12.185,7.725V73.029l4.978-0.651
	l7.046,5.391c0.402,0.309,0.884,0.462,1.365,0.462c0.48,0,0.962-0.153,1.365-0.462l7.046-5.391l4.978,0.652v26.214L69.465,91.52z
	 M95.514,47.424c-0.361,0.472-0.521,1.066-0.443,1.656l1.05,8.007l-7.468,3.09c-0.55,0.228-0.988,0.666-1.217,1.216l-3.091,7.463
	l-8.01-1.048c-0.589-0.078-1.186,0.082-1.657,0.443l-6.417,4.909l-6.417-4.909c-0.394-0.302-0.874-0.463-1.364-0.463
	c-0.098,0-0.195,0.007-0.292,0.02l-8.011,1.048l-3.092-7.464c-0.228-0.551-0.665-0.987-1.215-1.215l-7.467-3.09l1.049-8.007
	c0.077-0.589-0.083-1.184-0.444-1.656l-4.912-6.415l4.912-6.415c0.361-0.471,0.521-1.066,0.444-1.655l-1.049-8.008l7.467-3.09
	c0.551-0.228,0.988-0.665,1.216-1.215l3.091-7.463l8.011,1.048c0.589,0.077,1.184-0.082,1.656-0.443l6.417-4.91l6.417,4.91
	c0.471,0.361,1.067,0.521,1.656,0.443l8.01-1.048l3.092,7.463c0.229,0.55,0.666,0.987,1.216,1.215l7.468,3.09l-1.05,8.007
	c-0.077,0.589,0.082,1.184,0.443,1.656l4.911,6.415L95.514,47.424z"/>
<path fill="#3E466F" d="M76.269,18.515c-1.169-0.416-2.452,0.194-2.869,1.362c-0.415,1.168,0.194,2.451,1.363,2.867
	c7.708,2.741,12.889,10.082,12.889,18.266c0,10.688-8.698,19.382-19.39,19.382s-19.39-8.695-19.39-19.382
	c0-3.802,1.1-7.481,3.181-10.642c0.682-1.035,0.396-2.427-0.641-3.109c-1.036-0.681-2.428-0.395-3.11,0.641
	c-2.565,3.896-3.921,8.429-3.921,13.11c0,13.163,10.712,23.871,23.88,23.871c13.167,0,23.88-10.708,23.88-23.871
	C92.142,30.932,85.763,21.892,76.269,18.515"/>
<path fill="#3E466F" d="M54.546,26.529c0.5,0,1.005-0.167,1.423-0.51c3.452-2.832,7.817-4.392,12.292-4.392
	c1.24,0,2.246-1.005,2.246-2.244c0-1.24-1.006-2.245-2.246-2.245c-5.511,0-10.889,1.921-15.142,5.411
	c-0.959,0.787-1.098,2.201-0.311,3.159C53.252,26.249,53.896,26.529,54.546,26.529"/>
</svg>
