<?xml version="1.0" encoding="utf-8"?>
<!-- Generator: Adobe Illustrator 16.0.0, SVG Export Plug-In . SVG Version: 6.00 Build 0)  -->
<!DOCTYPE svg PUBLIC "-//W3C//DTD SVG 1.1//EN" "http://www.w3.org/Graphics/SVG/1.1/DTD/svg11.dtd">
<svg version="1.1" id="Layer_1" xmlns="http://www.w3.org/2000/svg" xmlns:xlink="http://www.w3.org/1999/xlink" x="0px" y="0px"
	 width="136px" height="110px" viewBox="0 0 136 110" enable-background="new 0 0 136 110" xml:space="preserve">
<path fill="#3E466F" d="M111.591,45.207c-0.466-1.438-2.006-2.225-3.438-1.759L75.431,54.114l7.643-10.553
	c0.888-1.223,0.616-2.934-0.604-3.824c-1.219-0.889-2.926-0.617-3.812,0.606l-7.642,10.553V16.383c0-1.512-1.222-2.737-2.729-2.737
	c-1.507,0-2.729,1.225-2.729,2.737v34.513l-7.643-10.553c-0.886-1.223-2.592-1.495-3.812-0.606
	c-1.219,0.888-1.489,2.601-0.604,3.824l7.643,10.553L28.422,43.448c-1.435-0.466-2.973,0.32-3.438,1.759
	c-0.466,1.438,0.318,2.981,1.752,3.449l32.72,10.666l-12.367,4.03c-1.434,0.467-2.218,2.011-1.752,3.45
	c0.375,1.156,1.445,1.892,2.595,1.892c0.279,0,0.563-0.044,0.844-0.135l12.366-4.031L40.919,92.45
	c-0.886,1.223-0.615,2.936,0.604,3.824c0.484,0.354,1.046,0.523,1.602,0.523c0.844,0,1.676-0.392,2.21-1.128l20.223-27.922v13.043
	c0,1.513,1.222,2.738,2.729,2.738s2.73-1.226,2.73-2.738V67.748L91.237,95.67c0.534,0.736,1.367,1.128,2.211,1.128
	c0.557,0,1.117-0.17,1.603-0.523c1.219-0.889,1.489-2.602,0.604-3.824L75.431,64.528l12.367,4.031
	c0.28,0.091,0.563,0.135,0.844,0.135c1.15,0,2.22-0.735,2.594-1.894c0.466-1.438-0.318-2.981-1.752-3.449L77.118,59.32l32.72-10.664
	C111.271,48.188,112.056,46.645,111.591,45.207"/>
</svg>
