<?xml version="1.0" encoding="utf-8"?>
<!-- Generator: Adobe Illustrator 16.0.0, SVG Export Plug-In . SVG Version: 6.00 Build 0)  -->
<!DOCTYPE svg PUBLIC "-//W3C//DTD SVG 1.1//EN" "http://www.w3.org/Graphics/SVG/1.1/DTD/svg11.dtd">
<svg version="1.1" id="Layer_1" xmlns="http://www.w3.org/2000/svg" xmlns:xlink="http://www.w3.org/1999/xlink" x="0px" y="0px"
	 width="136px" height="110px" viewBox="0 0 136 110" enable-background="new 0 0 136 110" xml:space="preserve">
<path fill="#3F465E" d="M67.961,12.474c-23.802,0-43.167,19.364-43.167,43.167c0,23.802,19.365,43.167,43.167,43.167
	s43.167-19.365,43.167-43.167S91.764,12.474,67.961,12.474 M67.961,94.505c-21.43,0-38.864-17.434-38.864-38.863
	c0-21.431,17.434-38.865,38.864-38.865c21.431,0,38.864,17.434,38.864,38.864C106.825,77.071,89.392,94.505,67.961,94.505"/>
<polygon fill="#3F465E" points="65.81,53.491 48.645,53.491 48.645,57.793 70.113,57.793 70.113,25.061 65.81,25.061 "/>
</svg>
