<?xml version="1.0" encoding="utf-8"?>
<!-- Generator: Adobe Illustrator 16.0.0, SVG Export Plug-In . SVG Version: 6.00 Build 0)  -->
<!DOCTYPE svg PUBLIC "-//W3C//DTD SVG 1.1//EN" "http://www.w3.org/Graphics/SVG/1.1/DTD/svg11.dtd">
<svg version="1.1" id="Layer_1" xmlns="http://www.w3.org/2000/svg" xmlns:xlink="http://www.w3.org/1999/xlink" x="0px" y="0px"
	 width="50px" height="50px" viewBox="8.5 8.5 50 50" enable-background="new 8.5 8.5 50 50" xml:space="preserve">
<path fill="#9B9B9B" d="M24.365,33.917c-0.04,0,0.434,1.003,0.447,1.003c1.034,1.844,3.027,2.991,6.39,3.31
	c-0.48,0.358-1.057,1.036-1.136,1.822c-0.604,0.382-1.817,0.509-2.76,0.217c-1.322-0.411-1.829-2.981-3.808-2.615
	c-0.429,0.079-0.343,0.356,0.027,0.594c0.604,0.384,1.171,0.863,1.608,1.885c0.337,0.785,1.044,2.187,3.28,2.187
	c0.887,0,1.509-0.105,1.509-0.105s0.017,2.002,0.017,2.781c0,0.899-1.234,1.151-1.234,1.583c0,0.17,0.409,0.188,0.736,0.188
	c0.648,0,1.997-0.531,1.997-1.466c0-0.741,0.013-3.232,0.013-3.671c0-0.953,0.52-1.255,0.52-1.255s0.064,5.088-0.124,5.772
	c-0.222,0.802-0.622,0.688-0.622,1.047c0,0.533,1.625,0.132,2.162-1.038c0.416-0.908,0.234-5.903,0.234-5.903l0.443-0.011
	c0,0,0.026,2.286,0.01,3.332c-0.015,1.082-0.09,2.451,0.563,3.097c0.43,0.424,1.822,1.168,1.822,0.488
	c0-0.396-0.763-0.719-0.763-1.79v-4.925c0.609,0,0.518,1.619,0.518,1.619l0.045,3.01c0,0-0.135,1.097,1.207,1.555
	c0.475,0.163,1.483,0.207,1.533-0.066c0.048-0.273-1.22-0.682-1.23-1.528c-0.01-0.519,0.022-0.82,0.022-3.071
	s-0.308-3.082-1.379-3.743c3.306-0.334,5.353-1.139,6.349-3.291c0.079,0.003,0.407-1.004,0.364-1.004
	c0.224-0.813,0.346-1.774,0.368-2.913c-0.006-3.087-1.51-4.18-1.797-4.692c0.425-2.337-0.072-3.4-0.303-3.766
	c-0.853-0.298-2.963,0.767-4.118,1.516c-1.88-0.541-5.855-0.489-7.347,0.139c-2.75-1.936-4.206-1.639-4.206-1.639
	s-0.94,1.657-0.249,4.082c-0.905,1.133-1.58,1.935-1.58,4.062C23.898,31.909,24.042,32.981,24.365,33.917z M33.5,55.5
	c-12.149,0-22-9.85-22-22s9.851-22,22-22c12.15,0,22,9.85,22,22S45.65,55.5,33.5,55.5z"/>
</svg>
