<?xml version="1.0" encoding="utf-8"?>
<!-- Generator: Adobe Illustrator 16.0.0, SVG Export Plug-In . SVG Version: 6.00 Build 0)  -->
<!DOCTYPE svg PUBLIC "-//W3C//DTD SVG 1.1//EN" "http://www.w3.org/Graphics/SVG/1.1/DTD/svg11.dtd">
<svg version="1.1" id="Layer_1" xmlns="http://www.w3.org/2000/svg" xmlns:xlink="http://www.w3.org/1999/xlink" x="0px" y="0px"
	 width="128px" height="128px" viewBox="0 0 128 128" enable-background="new 0 0 128 128" xml:space="preserve">
<path fill="#DDE0E0" d="M111,25c3.3,0,6,2.7,6,6v66c0,3.3-2.7,6-6,6H17c-3.3,0-6-2.7-6-6V31c0-3.3,2.7-6,6-6H111 M111,21H17
	c-5.5,0-10,4.5-10,10v66c0,5.5,4.5,10,10,10h94c5.5,0,10-4.5,10-10V31C121,25.5,116.5,21,111,21L111,21z"/>
<path fill="#DDE0E0" d="M111.5,44H17c-0.6,0-1-0.4-1-1s0.4-1,1-1h94.5c0.6,0,1,0.4,1,1S112.1,44,111.5,44z"/>
<circle fill="#DDE0E0" cx="21.5" cy="33.8" r="3"/>
<circle fill="#DDE0E0" cx="30.5" cy="33.8" r="3"/>
<circle fill="#DDE0E0" cx="39.5" cy="33.8" r="3"/>
</svg>
